<?xml version="1.0" standalone="no"?>
<!DOCTYPE svg PUBLIC "-//W3C//DTD SVG 1.1//EN" "http://www.w3.org/Graphics/SVG/1.1/DTD/svg11.dtd" >
<svg xmlns="http://www.w3.org/2000/svg">
<metadata>
Created by FontPrep 20130207 at Mon Feb 16 15:41:43 2015
 By Jirayu L.
Copyright (c) 2008 by Prinya R. nont. All rights reserved.
</metadata>
<defs>
<font id="dbbdb2c07288635e6240fe5d3bb05263" horiz-adv-x='1024' >
  <font-face 
    font-family="DBAdmanRoundedX-Bold"
    font-weight="700"
    font-stretch="normal"
    units-per-em="2048"
    panose-1="2 0 5 6 9 0 0 2 0 4"
    ascent="1638"
    descent="-410"
    x-height="750"
    cap-height="1092"
    bbox="-1000 -828 2001 1827"
    underline-thickness="41"
    underline-position="-232"
    unicode-range="U+0020-F882"
  />
<missing-glyph horiz-adv-x="848" 
d="M244 192q-44 14 -44 78q0 26 23 48t50 22q44 0 65.5 -22.5t21.5 -47.5q0 -48 -30 -78l-102 -98q-26 -24 -97 -92h-65v282q0 91 64.5 143t179 52t149.5 -68.5t35 -117.5v-237h216v413h58v-467h-387v54h59v243q0 88 -61 105.5t-93 17.5q-65 0 -113 -35t-48 -94v-219z
M279 230q35 0 35 32t-35 31q-35 0 -35 -31.5t35 -31.5zM768 809v-291q-227 74 -492 74q-96 0 -192 -12q26 98 111 163.5t230 65.5t210 -58.5t77 -78.5v6l-2 131h58zM294 649h99q99 0 199.5 -26.5t119.5 -42.5q-60 120 -158 145t-138 25q-159 0 -244 -109q73 8 122 8z
M876 846q52 0 52 -56q0 -30 -19 -38t-32 -8q-26 0 -39.5 15t-13.5 34q0 20 14 36.5t38 16.5zM830 790q0 -40 46 -40t46 40q0 50 -46 50t-46 -50zM864 788v-28h-10v70h22q24 0 25 -21q0 -21 -21 -21l21 -28h-10l-21 28h-6zM876 790q14 0 14 14t-14 15h-12v-29h12z" />
    <glyph glyph-name="plusminus" unicode="&#x2b;&#x2d;" horiz-adv-x="809" 
d="M700 162q34 0 52 -18t24 -32.5t6 -40.5t-24 -48.5t-58 -22.5h-592q-52 0 -67 31.5t-15 55.5t24 49.5t58 25.5h592zM324 654v214q0 55 31 68.5t57.5 13.5t50 -25t23.5 -57v-214h214q32 0 51 -18t25 -33t6 -40.5t-24 -48t-58 -22.5h-214v-216q0 -51 -33 -66.5t-57 -15.5
t-48 24t-24 58v216h-216q-51 0 -66.5 31t-15.5 56t25 50t57 25h216z" />
    <glyph glyph-name="ellipsis" unicode="&#x2e;&#x2e;&#x2e;" horiz-adv-x="1038" 
d="M641 91q0 -25 -9.5 -47t-25.5 -38t-38 -25t-61 -9t-73 34t-34 72t9 60t25 38t38 25.5t48 9.5t48 -9.5t38 -25.5t25.5 -38t9.5 -47zM301 91q0 -25 -9.5 -47t-25.5 -38t-38 -25t-61 -9t-73 34t-34 72t9 60t25 38t38 25.5t48 9.5t48 -9.5t38 -25.5t25.5 -38t9.5 -47zM981 91
q0 -25 -9.5 -47t-25.5 -38t-38 -25t-61 -9t-73 34t-34 72t9 60t25 38t38 25.5t48 9.5t48 -9.5t38 -25.5t25.5 -38t9.5 -47z" />
    <glyph glyph-name="lessequal" unicode="&#x3c;&#x3d;" horiz-adv-x="819" 
d="M49 547l727 -393q26 -13 37 -39q34 -80 -48 -113q-33 -9 -63 4l-653 340v201zM732 1110q58 0 78 -38q29 -55 -8 -98q-10 -14 -26 -22l-487 -248l487 -264q28 -14 38 -39q23 -59 -20 -95q-44 -37 -92 -13l-653 340v143l651 326q16 8 32 8z" />
    <glyph glyph-name="greaterequal" unicode="&#x3e;&#x3d;" horiz-adv-x="819" 
d="M88 -2q-16 0 -39 7t-36 30t-13 39q0 58 45 80l727 393v-201l-653 -340q-15 -8 -31 -8zM0 360q0 58 45 80l487 264l-487 248q-26 13 -36 39q-30 83 49 115q33 9 63 -4l651 -326v-143l-653 -340q-47 -28 -90 11q-29 24 -29 56z" />
    <glyph glyph-name="fongmanfunnuthai" unicode="&#xe4f;&#x22;" horiz-adv-x="1151" 
d="M726 1344.5q20 -23.5 20 -50.5l-17 -204q-5 -58 -57 -58q-24 0 -39 17t-17 41l-10 206q-3 45 26.5 58.5t51.5 13.5t42 -23.5zM471 1368q14 0 41.5 -13t27.5 -61l-16 -204q-5 -58 -56 -58t-56 58l-10 206q-3 44 26 58t43 14zM690 486q0 24 -9 45t-25 37t-37 25t-45 9
t-45.5 -9t-37.5 -25t-25.5 -37t-9.5 -45t9.5 -45.5t25.5 -37.5t37.5 -25.5t45.5 -9.5t45 9.5t37 25.5t25 37.5t9 45.5zM934 478q0 48 -13 95.5t-37 88.5t-57 74.5t-73 58t-86 38t-95 13.5t-94.5 -13t-86 -37t-73.5 -57t-56.5 -73t-36.5 -86t-13 -95t13 -94.5t36.5 -86
t56.5 -73.5t73.5 -56.5t86 -36.5t94.5 -13t95 13t86 36.5t73 56t57 72t37 83.5t13 92zM826 486q0 -52 -20 -98t-54 -80.5t-80 -54t-98 -19.5t-122 29.5t-100 100t-30 122.5t29.5 121t100 100t122.5 31t98 -20t80 -54t54 -80t20 -98zM1073 486q0 -68 -18 -132t-50.5 -119.5
t-78.5 -101t-102 -78.5t-119 -51t-131 -18t-132 18t-119.5 51t-101 78.5t-78.5 101t-51 119.5t-18 132t18 131t51 119t78.5 102t101 78.5t119.5 50.5t132 18t131 -18t119 -50.5t102 -78.5t78.5 -102t50.5 -119t18 -131z" />
    <glyph glyph-name="dochadaphinthuthai" unicode="&#xe0e;&#xe3a;" horiz-adv-x="1009" 
d="M952 -516q0 -24 -9 -46t-25 -38t-37 -25.5t-45 -9.5t-46 9.5t-38 25.5t-25.5 37t-9.5 45t9.5 46t25.5 38t37 25t45 9t46 -9t38 -25t25 -37t9 -45zM440 -276q-101 0 -160.5 -29t-82.5 -44t-40 -18t-34 0t-32 13t-25 26q-20 33 -11.5 67.5t43.5 56.5q157 102 343 102
q107 0 223 -52l69 66v614q0 153 -98.5 188.5t-140.5 35.5q-120 0 -203 -78l49 -52v-521q0 -64 -39 -81.5t-60 -17.5h-118q-60 0 -76.5 36t-16.5 56q0 38 26.5 66t66.5 28h19v380l-52 55q-65 70 74.5 191.5t287.5 121.5q296 0 388 -144t92 -262v-684l-244 -225
q-147 105 -248 105z" />
    <glyph glyph-name="topatakphintuthai" unicode="&#xe0f;&#xe3a;" horiz-adv-x="1009" 
d="M735 526q0 99 -71 160.5t-183 61.5t-190 -76l49 -52v-521q0 -64 -39 -81.5t-60 -17.5h-118q-60 0 -76.5 36t-16.5 56q0 38 26.5 66t66.5 28h19v380l-52 55q-65 70 74.5 191.5t287.5 121.5q296 0 388 -144t92 -262v-680l-266 -235l-160 143l-160 -143l-230 205
q-40 37 -23.5 89.5t63 57t74.5 -17.5l122 -107l154 138l154 -138l75 64v622zM952 -516q0 -24 -9 -46t-25 -38t-37 -25.5t-45 -9.5t-46 9.5t-38 25.5t-25.5 37t-9.5 45t9.5 46t25.5 38t37 25t45 9t46 -9t38 -25t25 -37t9 -45z" />
    <glyph glyph-name="dochadasarauthai" unicode="&#xe0e;&#xe38;" horiz-adv-x="1009" 
d="M440 -276q-101 0 -160.5 -29t-82.5 -44t-40 -18t-34 0t-32 13t-25 26q-20 33 -11.5 67.5t43.5 56.5q157 102 343 102q107 0 223 -52l69 66v614q0 153 -98.5 188.5t-140.5 35.5q-120 0 -203 -78l49 -52v-521q0 -64 -39 -81.5t-60 -17.5h-118q-60 0 -76.5 36t-16.5 56
q0 38 26.5 66t66.5 28h19v380l-52 55q-65 70 74.5 191.5t287.5 121.5q296 0 388 -144t92 -262v-684l-244 -225q-147 105 -248 105zM932 -708q0 -62 -36 -78.5t-56 -16.5q-40 0 -67 27.5t-27 67.5v110h-44q-60 0 -77 37t-17 57q0 37 27 65.5t67 28.5h136q61 0 77.5 -36
t16.5 -56v-206z" />
    <glyph glyph-name="topataksarauthai" unicode="&#xe0f;&#xe38;" horiz-adv-x="1009" 
d="M735 526q0 99 -71 160.5t-183 61.5t-190 -76l49 -52v-521q0 -64 -39 -81.5t-60 -17.5h-118q-60 0 -76.5 36t-16.5 56q0 38 26.5 66t66.5 28h19v380l-52 55q-65 70 74.5 191.5t287.5 121.5q296 0 388 -144t92 -262v-680l-266 -235l-160 143l-160 -143l-230 205
q-40 37 -23.5 89.5t63 57t74.5 -17.5l122 -107l154 138l154 -138l75 64v622zM932 -708q0 -62 -36 -78.5t-56 -16.5q-40 0 -67 27.5t-27 67.5v110h-44q-60 0 -77 37t-17 57q0 37 27 65.5t67 28.5h136q61 0 77.5 -36t16.5 -56v-206z" />
    <glyph glyph-name="dochadasarauuthai" unicode="&#xe0e;&#xe39;" horiz-adv-x="1009" 
d="M440 -276q-101 0 -160.5 -29t-82.5 -44t-40 -18t-34 0t-32 13t-25 26q-20 33 -11.5 67.5t43.5 56.5q157 102 343 102q107 0 223 -52l69 66v614q0 153 -98.5 188.5t-140.5 35.5q-120 0 -203 -78l49 -52v-521q0 -64 -39 -81.5t-60 -17.5h-118q-60 0 -76.5 36t-16.5 56
q0 38 26.5 66t66.5 28h19v380l-52 55q-65 70 74.5 191.5t287.5 121.5q296 0 388 -144t92 -262v-684l-244 -225q-147 105 -248 105zM660 -624q0 -18 13 -29t30 -11t30 11t13 29v132q0 61 36 76.5t56 15.5q37 0 64.5 -26t27.5 -66v-128q0 -92 -66.5 -150t-161.5 -58
q-147 0 -186 66t-39 104v62h-37q-37 0 -65.5 27t-28.5 57t16.5 66t77.5 36h125q60 0 77.5 -36t17.5 -56v-122z" />
    <glyph glyph-name="topataksarauuthai" unicode="&#xe0f;&#xe39;" horiz-adv-x="1009" 
d="M735 526q0 99 -71 160.5t-183 61.5t-190 -76l49 -52v-521q0 -64 -39 -81.5t-60 -17.5h-118q-60 0 -76.5 36t-16.5 56q0 38 26.5 66t66.5 28h19v380l-52 55q-65 70 74.5 191.5t287.5 121.5q296 0 388 -144t92 -262v-680l-266 -235l-160 143l-160 -143l-230 205
q-40 37 -23.5 89.5t63 57t74.5 -17.5l122 -107l154 138l154 -138l75 64v622zM660 -624q0 -18 13 -29t30 -11t30 11t13 29v132q0 61 36 76.5t56 15.5q37 0 64.5 -26t27.5 -66v-128q0 -91 -67 -149.5t-162 -58.5t-159.5 48t-64.5 122v62h-37q-37 0 -65.5 27t-28.5 57t16.5 66
t77.5 36h125q60 0 77.5 -36t17.5 -56v-122z" />
    <glyph glyph-name=".notdef" horiz-adv-x="848" 
d="M244 192q-44 14 -44 78q0 26 23 48t50 22q44 0 65.5 -22.5t21.5 -47.5q0 -48 -30 -78l-102 -98q-26 -24 -97 -92h-65v282q0 91 64.5 143t179 52t149.5 -68.5t35 -117.5v-237h216v413h58v-467h-387v54h59v243q0 88 -61 105.5t-93 17.5q-65 0 -113 -35t-48 -94v-219z
M279 230q35 0 35 32t-35 31q-35 0 -35 -31.5t35 -31.5zM768 809v-291q-227 74 -492 74q-96 0 -192 -12q26 98 111 163.5t230 65.5t210 -58.5t77 -78.5v6l-2 131h58zM294 649h99q99 0 199.5 -26.5t119.5 -42.5q-60 120 -158 145t-138 25q-159 0 -244 -109q73 8 122 8z
M876 846q52 0 52 -56q0 -30 -19 -38t-32 -8q-26 0 -39.5 15t-13.5 34q0 20 14 36.5t38 16.5zM830 790q0 -40 46 -40t46 40q0 50 -46 50t-46 -50zM864 788v-28h-10v70h22q24 0 25 -21q0 -21 -21 -21l21 -28h-10l-21 28h-6zM876 790q14 0 14 14t-14 15h-12v-29h12z" />
    <glyph glyph-name=".null" 
 />
    <glyph glyph-name="nonmarkingreturn" horiz-adv-x="579" 
 />
    <glyph glyph-name="space" unicode=" " horiz-adv-x="512" 
 />
    <glyph glyph-name="exclam" unicode="!" horiz-adv-x="440" 
d="M112 983q0 69 42 89t75.5 20t66 -32.5t32.5 -76.5v-348l-21 -283q-10 -86 -88 -86q-55 0 -70 34t-16 52l-21 283v348zM348 103q0 -27 -10 -50t-27.5 -39t-41 -25t-50.5 -9t-50.5 9t-41 25t-27.5 39t-10 50t10 49.5t27.5 39t41 26.5t50.5 10t50.5 -10t41 -26.5t27.5 -39
t10 -49.5z" />
    <glyph glyph-name="quotedbl" unicode="&#x22;" horiz-adv-x="493" 
d="M364 1110q16 0 49 -15t33 -67l-14 -272q-3 -46 -29.5 -56t-41.5 -10q-29 0 -46.5 18.5t-19.5 47.5l-13 272q-3 50 31.5 66t50.5 16zM131 1110q33 0 58.5 -25.5t23.5 -56.5l-15 -272q-3 -46 -29.5 -56t-40.5 -10q-28 0 -47 19t-19 47l-13 272q-2 31 23.5 56.5t58.5 25.5z
" />
    <glyph glyph-name="numbersign" unicode="#" horiz-adv-x="919" 
d="M129 295q-57 0 -70.5 33.5t-13.5 60t24 50.5t60 24h103l18 133h-82q-55 0 -69.5 33t-14.5 59.5t24.5 51t59.5 24.5h104l31 211q6 35 43 63.5t87.5 -2t41.5 -86.5l-31 -186h115l31 211q6 36 42 63.5t85 -1.5t43 -85l-29 -188h61q58 0 71 -33t13 -60t-24 -51t-60 -24h-88
l-20 -133h74q55 0 69.5 -33.5t14.5 -59.5t-24.5 -50.5t-59.5 -24.5h-100l-40 -235q-6 -34 -31.5 -54t-51.5 -16q-41 5 -62 31.5t-17 60.5l34 213h-113l-33 -231q-10 -59 -62.5 -72.5t-81 22.5t-24.5 70l31 211h-78zM420 596l-20 -133h112l20 133h-112z" />
    <glyph glyph-name="dollar" unicode="$" horiz-adv-x="876" 
d="M854 325q0 -41 -11 -79t-65.5 -124t-239.5 -128v-102q0 -50 -29 -62t-52.5 -12t-44.5 21t-21 53v92q-213 16 -335 227q-34 56 -1 100t89 50t94 -64q60 -111 153 -133v336q-132 55 -169 82q-126 90 -126 208q0 121 80.5 203.5t214.5 102.5v86q0 49 29.5 61.5t44.5 12.5
t44 -13t29 -61v-90q140 -29 242 -154q41 -48 14.5 -107.5t-81 -56.5t-80.5 31q-66 71 -95 90v-258l152 -67q82 -47 112 -90t41 -78.5t11 -76.5zM643 324q0 56 -105 108v-254q105 44 105 146zM305 796q0 -44 35.5 -63t50.5 -27v206q-86 -29 -86 -116z" />
    <glyph glyph-name="percent" unicode="%" horiz-adv-x="1161" 
d="M811 1110q29 51 87.5 44t72 -55t-6.5 -79l-604 -1024q-28 -49 -74.5 -43.5t-75.5 44.5t1 85zM966 237.5q0 17.5 -7 33t-19 27.5t-28.5 19t-35 7t-34.5 -7t-28 -19t-19 -27.5t-7 -33t7 -32.5t19 -26t28 -17t34.5 -6t35 6t28.5 17t19 26t7 32.5zM368 843q0 17 -7 32t-19 26
t-28 18t-34 7t-34 -7t-28 -18t-19 -26t-7 -33t7 -33t19 -26t28 -17t34 -6t34 7t28 18t19 26t7 32zM1055 67q-73 -69 -178 -69t-179 70t-74 172q0 103 74 171t179.5 68t178 -68.5t72.5 -171.5t-73 -172zM530 842q0 -52 -28.5 -118.5t-99 -94t-122.5 -27.5t-98 18t-80 50
t-54 76t-20 96t20 96.5t54 77t80 51.5t98 19t98 -19t80 -51.5t53 -77t19 -96.5z" />
    <glyph glyph-name="ampersand" unicode="&#x26;" horiz-adv-x="1134" 
d="M456 506q-176 -132 -165 -222q4 -58 45 -97q91 -86 254 53q28 24 59 51zM477 762q74 57 68 108q-5 30 -23 45q-41 34 -79 -12q-38 -52 7 -108q20 -25 27 -33zM780 148q-128 -113 -243 -157q-195 -62 -330 55q-101 86 -114 228q-15 165 177 328q30 26 58 50
q-61 64 -75 112q-15 48 -18 88q-7 90 61 170q69 80 174 88t181 -58t84 -165q13 -142 -133 -267l176 -194l78 86q26 30 63 34t62 -17q23 -21 31 -38q25 -58 -12 -102l-90 -107l140 -163q36 -42 13 -99q-9 -16 -31 -35t-58 -16t-60 31z" />
    <glyph glyph-name="quotesingle" unicode="'" horiz-adv-x="329" 
d="M220.5 1086.5q25.5 -23.5 25.5 -58.5l-14 -272q-3 -44 -29.5 -55t-41.5 -11q-30 0 -47.5 19.5t-19.5 46.5l-12 272q-3 50 31.5 66t58 16t49 -23.5z" />
    <glyph glyph-name="parenleft" unicode="(" horiz-adv-x="485" 
d="M39 462q0 291 187 607q29 51 76 48.5t64.5 -24t25.5 -49t-15 -68.5q-143 -252 -143 -517q0 -134 17 -203.5t29 -107.5t26 -72t28 -65t26.5 -57t21.5 -45q17 -35 6.5 -69.5t-50.5 -56.5t-80.5 11t-92 146.5t-89 236t-37.5 285.5z" />
    <glyph glyph-name="parenright" unicode=")" horiz-adv-x="485" 
d="M260 477q0 245 -150 510q-26 52 4 90t76 40.5t78 -48.5q93 -163 126 -265t46.5 -181t13.5 -162q0 -323 -188 -635q-29 -52 -74 -49.5t-76.5 39.5t-5.5 90q10 22 71 143.5t70 243.5t9 184z" />
    <glyph glyph-name="asterisk" unicode="*" horiz-adv-x="721" 
d="M419.5 1107.5q24.5 -24.5 24.5 -59.5l-2 -118l119 41q49 15 87 -26t19 -82.5t-51 -51.5l-124 -37l82 -112q47 -65 -17 -120q-46 -33 -77.5 -15t-41.5 32l-74 107l-80 -107q-31 -44 -77 -33.5t-68 50.5t11 86l82 112l-124 37q-50 19 -53 73t37.5 75.5t71.5 11.5l116 -41
l-4 118q0 34 25 59t59.5 25t59 -24.5z" />
    <glyph glyph-name="plus" unicode="+" horiz-adv-x="809" 
d="M324 479v215q0 53 31 67.5t56.5 14.5t50 -24.5t24.5 -57.5v-215h214q33 0 51.5 -17.5t24.5 -32.5t6 -40.5t-24 -48t-58 -22.5h-214v-216q0 -51 -33 -66.5t-57 -15.5t-48 24t-24 58v216h-216q-51 0 -66.5 31t-15.5 56t24.5 49.5t57.5 24.5h216z" />
    <glyph glyph-name="comma" unicode="," horiz-adv-x="348" 
d="M87 172.5q34 34.5 75 34.5q68 0 102.5 -43t34.5 -100q0 -58 -43.5 -122.5t-128.5 -121.5q-31 -20 -57 -5t-31 43t16 43t42.5 32.5t48.5 54.5q-44 11 -68.5 38.5t-24.5 69.5t34 76.5z" />
    <glyph glyph-name="hyphen" unicode="-" horiz-adv-x="588" 
d="M463 482q53 0 67.5 -33t14.5 -57.5t-23 -49t-59 -24.5h-338q-53 0 -67.5 32t-14.5 57.5t24.5 50t57.5 24.5h338z" />
    <glyph glyph-name="period" unicode="." horiz-adv-x="348" 
d="M295 103q0 -25 -9.5 -46.5t-25.5 -38t-38 -25.5t-61 -9t-73.5 34t-34.5 72t9.5 60t25.5 38t38 25.5t48 9.5t48 -9.5t38 -25.5t25.5 -38t9.5 -47z" />
    <glyph glyph-name="slash" unicode="/" horiz-adv-x="971" 
d="M698 1178q25 50 84 44q59 -5 77 -60q11 -37 -5 -66l-578 -1059q-26 -51 -75 -46q-50 5 -66 27q-42 55 -14 105z" />
    <glyph glyph-name="zero" unicode="0" horiz-adv-x="880" 
d="M633 530q0 224 -72.5 299.5t-116.5 75.5q-83 0 -142.5 -104.5t-59.5 -261.5q0 -158 58.5 -261.5t137.5 -103.5t137 104.5t58 251.5zM838 547q0 -67 -11 -135t-33 -130.5t-55 -117t-77 -94.5t-100 -63t-123.5 -23t-123.5 23t-100.5 63t-77.5 94.5t-55 117t-32.5 130.5
t-10.5 135t11 134t33 128t55 114t77.5 91.5t100.5 61t123 22.5t122 -22.5t100 -61t78 -91.5t55 -114t33 -128t11 -134z" />
    <glyph glyph-name="one" unicode="1" horiz-adv-x="880" 
d="M570 90q0 -43 -22 -64t-41 -28.5t-52 -7.5t-61 29.5t-28 70.5v799h-106q-63 0 -79.5 38t-16.5 68t28.5 58.5t67.5 28.5h214q38 0 67 -29t29 -68v-895z" />
    <glyph glyph-name="two" unicode="2" horiz-adv-x="880" 
d="M172 0q-61 0 -78 38t-17 66t27 60l342 338q160 160 160 252q0 66 -47.5 110t-97.5 44q-147 0 -170 -150q-6 -43 -38 -67.5t-63 -21.5q-54 6 -81 40.5t-21 64.5q44 227 166 274.5t181 47.5t106 -12t108.5 -45t110.5 -113.5t49 -175.5q0 -171 -205 -367l-196 -195h313
q61 0 77.5 -37t16.5 -57q0 -39 -27.5 -66.5t-66.5 -27.5h-549z" />
    <glyph glyph-name="three" unicode="3" horiz-adv-x="880" 
d="M678 565q110 -98 110 -240t-96.5 -241.5t-249.5 -99.5q-152 0 -250 94q-70 70 -96 188q-12 67 35.5 94t78 19t53 -26t29.5 -51q11 -59 45.5 -93.5t80.5 -34.5q78 0 122 43.5t44 109.5t-35 104.5t-131 47.5q-54 6 -54 63.5t18 75.5t52 23t76 26t50 57t8 63q0 54 -35.5 86
t-73.5 32q-63 0 -92.5 -28t-36.5 -64q-10 -56 -41.5 -80.5t-64.5 -21.5q-54 6 -89 53t21 158.5t137 143.5t139 32t100 -11t97.5 -40t99 -102t43.5 -161q0 -131 -94 -219z" />
    <glyph glyph-name="four" unicode="4" horiz-adv-x="880" 
d="M104 178q-38 0 -65 28.5t-27 63.5q0 36 16 60l506 713q30 43 90 43t78.5 -41t18.5 -62v-611h41q63 0 80.5 -39t17.5 -67.5t-28 -58t-70 -29.5h-41v-86q0 -41 -21.5 -63.5t-40.5 -30.5t-51 -8t-62 30t-30 72v86h-412zM516 372v312l-223 -312h223z" />
    <glyph glyph-name="five" unicode="5" horiz-adv-x="880" 
d="M137 985q0 62 38 79.5t58 17.5h425q38 0 59 -21t29 -38.5t8 -47t-29 -57t-67 -27.5h-316v-123q58 10 103 10t97 -14t119.5 -52.5t121 -128.5t53.5 -173q0 -82 -23 -161t-123.5 -172t-275.5 -93q-202 0 -342 184q-39 52 -12.5 96.5t80 58t94.5 -40.5q82 -108 179 -108
q96 0 158 60t62 148t-63 147t-150 59q-128 0 -283 -82v479z" />
    <glyph glyph-name="six" unicode="6" horiz-adv-x="880" 
d="M633 385q0 45 -24 102.5t-77.5 82t-89.5 24.5t-70 -15t-60.5 -43t-42 -66.5t-15.5 -84.5t15.5 -84.5t42 -66.5t60.5 -43t70 -15t71 16t61.5 44t42.5 66t16 83zM836 384q0 -52 -21 -127.5t-114.5 -174t-258.5 -98.5q-166 0 -279.5 118t-113.5 266t78 263l307 453
q38 57 92 46t71 -37.5t23.5 -55.5t-18.5 -64l-129 -187q99 -8 204 -77t132 -171t27 -154z" />
    <glyph glyph-name="seven" unicode="7" horiz-adv-x="880" 
d="M706 1082q51 0 86.5 -37t35.5 -78t-16 -69l-488 -857q-32 -58 -87.5 -52.5t-88 50t-0.5 101.5l432 749h-428q-41 0 -61.5 20.5t-27.5 38t-7 48t28 58.5t68 28h554z" />
    <glyph glyph-name="eight" unicode="8" horiz-adv-x="880" 
d="M532.5 869q-38.5 37 -79.5 37q-68 0 -105.5 -36.5t-37.5 -77.5t21.5 -89.5t107.5 -48.5t109 49t23 89t-38.5 77zM592 320q0 30 -26 85.5t-124 55.5t-125.5 -55.5t-27.5 -85.5t12.5 -57t32.5 -46.5t48 -31t58 -11.5t57.5 12t48.5 32t33.5 46t12.5 56zM794 314
q0 -192 -152 -273t-292 -46.5t-202 130t-62 189.5q0 157 110 251q-88 90 -88 219t96 221.5t236 92.5t236 -92t96 -220q0 -129 -88 -221q110 -93 110 -251z" />
    <glyph glyph-name="nine" unicode="9" horiz-adv-x="880" 
d="M246 694.5q0 -44.5 16 -82.5t42 -66t60.5 -44t71.5 -16t71 15t60.5 43t41.5 66t15 84t-15 84.5t-41.5 66t-60.5 43t-71 15.5t-71.5 -16t-60.5 -44t-42 -66t-16 -82.5zM437 1096q163 0 278 -118t115 -284q0 -125 -78 -246l-308 -452q-38 -57 -91.5 -46t-83.5 55.5t7 100.5
l130 187q-154 12 -258.5 128t-104.5 275q0 160 115.5 280t278.5 120z" />
    <glyph glyph-name="colon" unicode=":" horiz-adv-x="348" 
d="M90 20q-34 34 -34 72q0 64 35 99t72 35q61 0 97 -35t36 -73t-10 -60t-34.5 -47t-76.5 -25q-51 0 -85 34zM261 537.5q-34 -35.5 -73 -35.5q-65 0 -98.5 35t-33.5 72q0 63 35 98t72 35t59 -10t47.5 -35.5t25.5 -74.5t-34 -84.5z" />
    <glyph glyph-name="semicolon" unicode=";" horiz-adv-x="348" 
d="M87 172.5q34 34.5 75 34.5q68 0 102.5 -43t34.5 -100q0 -58 -43.5 -122.5t-128.5 -121.5q-31 -20 -57 -5t-31 43t16 43t42.5 32.5t48.5 54.5q-44 11 -68.5 38.5t-24.5 69.5t34 76.5zM259 535.5q-34 -35.5 -73 -35.5q-38 0 -60 9t-38 25.5t-25.5 38.5t-9.5 60t35.5 73.5
t72.5 35.5t59 -10t47.5 -35.5t25.5 -75.5t-34 -85.5z" />
    <glyph glyph-name="less" unicode="&#x3c;" horiz-adv-x="870" 
d="M44 419q0 68 62 99l594 297q47 27 92 -11q14 -10 22 -26q25 -48 -12 -91q-10 -13 -26 -21l-487 -248l487 -264q26 -13 37 -39q27 -62 -18 -97q-45 -36 -93 -12l-598 311q-60 34 -60 102z" />
    <glyph glyph-name="equal" unicode="=" horiz-adv-x="815" 
d="M698 354q56 0 69 -32t13 -58.5t-25 -50t-57 -23.5h-579q-53 0 -67.5 33t-14.5 57.5t23 49t59 24.5h579zM698 604q33 0 51.5 -17.5t24.5 -32.5t6 -41t-25 -49.5t-57 -23.5h-579q-53 0 -67.5 32.5t-14.5 58t24 49.5t58 24h579z" />
    <glyph glyph-name="greater" unicode="&#x3e;" horiz-adv-x="870" 
d="M828 418q0 -69 -59 -101l-599 -311q-49 -26 -91 10q-42 37 -27 80t44 58l488 264l-488 248q-48 24 -45 80q2 37 38 64q36 28 83 5l594 -297q62 -31 62 -100z" />
    <glyph glyph-name="question" unicode="?" horiz-adv-x="737" 
d="M525.5 515q-56.5 -49 -56.5 -101v-58q0 -38 -28 -66t-57 -28q-69 0 -86.5 37t-17.5 57v62q0 96 48 150t86 90t63 68.5t25 63.5t-8 52.5t-24 38.5t-42 28t-79 11t-87 -40.5t-36 -102.5t-38.5 -76.5t-66.5 -14.5t-75.5 49.5t20.5 185t155 162.5t143 23q146 0 238 -88.5
t92 -207.5t-56 -182.5t-112.5 -112.5zM500 92q0 -27 -10 -49.5t-26 -39.5t-39 -26.5t-50 -9.5t-50 9.5t-39.5 26.5t-26 39.5t-9.5 63t35.5 76t75.5 35.5t62.5 -9.5t39.5 -26t27 -39.5t10 -50z" />
    <glyph glyph-name="at" unicode="@" horiz-adv-x="1179" 
d="M258 454q0 154 100 288t268 134q76 0 146 -50q28 71 86 52q44 -13 46 -42t-18.5 -84t-70.5 -212t-47 -185.5t24 -28.5q20 0 44 13t61 47t73 106t36 132t-16 106t-57 102.5t-133 100.5t-172 44t-136 -16.5t-130.5 -60.5t-135 -147.5t-60.5 -218.5q0 -198 140.5 -324
t347.5 -126q165 0 247 54t103 80t33.5 30t26.5 3.5t27 -6t28 -20.5t14 -43.5t-15 -42.5q-32 -32 -66.5 -60.5t-102.5 -60.5q-136 -65 -297 -65q-267 0 -446.5 164t-179.5 414t139 385t250 165.5t188 30.5t181 -24t232.5 -137t128.5 -323q0 -112 -53.5 -213t-142.5 -163
t-181 -62q-93 0 -123 72q-80 -43 -149 -43q-119 0 -178.5 67t-59.5 168zM402 463q0 -107 104 -107q44 0 91.5 41t64.5 87l53 165q6 21 -22 55t-67 34q-38 0 -64 -12t-61 -41t-67 -94.5t-32 -127.5z" />
    <glyph glyph-name="A" unicode="A" horiz-adv-x="1030" 
d="M518 1092q58 0 80 -51l377 -912q26 -64 -11 -101t-77 -38t-63.5 20t-31.5 41l-100 242h-352l-100 -242q-15 -37 -53 -53.5t-68 -3.5q-31 12 -59.5 42t-3.5 93l381 912q23 51 81 51zM516 712l-98 -235h196z" />
    <glyph glyph-name="B" unicode="B" horiz-adv-x="827" 
d="M594 349.5q0 61.5 -62 86.5q-46 23 -97 24t-79 1h-76v-273h90q116 0 156 23.5t54 50t14 88zM465 865q-41 26 -135 26h-50v-239h50q94 0 135 23.5t41 93.5t-41 96zM656 590q142 -92 142 -257t-113.5 -249t-274.5 -84h-232q-43 0 -71.5 30t-28.5 72v877q0 68 39 85.5
t61 17.5h176q253 0 304.5 -117t51.5 -211t-54 -164z" />
    <glyph glyph-name="C" unicode="C" horiz-adv-x="989" 
d="M573 -16q-61 0 -133 20t-168 75t-175 181.5t-79 277.5q0 231 169 395.5t403 164.5q173 0 330 -109q51 -38 42.5 -88t-52.5 -79t-97 8q-68 55 -181 74t-191.5 -28t-150 -119.5t-71.5 -218.5t111 -255t240 -109t243 76q55 37 108 0.5t41.5 -87t-46.5 -75.5q-36 -26 -76 -46
t-80 -33t-83 -19t-104 -6z" />
    <glyph glyph-name="D" unicode="D" horiz-adv-x="932" 
d="M602.5 794q-105.5 95 -280.5 95h-42v-699h42q171 0 278.5 94.5t107.5 254.5t-105.5 255zM324 1082q258 0 424 -147t166 -394t-168 -394t-422 -147h-146q-43 0 -71.5 30t-28.5 72v877q0 68 39 85.5t61 17.5h146z" />
    <glyph glyph-name="E" unicode="E" horiz-adv-x="735" 
d="M178 0q-43 0 -71.5 30t-28.5 72v877q0 68 39 85.5t61 17.5h424q38 0 60 -21t29 -38.5t7 -48.5t-28.5 -58t-67.5 -27h-322v-209h310q62 0 79 -38t17 -58q0 -40 -27.5 -67t-68.5 -27h-310v-300h324q64 0 79 -38t15 -58q0 -41 -28 -67.5t-66 -26.5h-426z" />
    <glyph glyph-name="F" unicode="F" horiz-adv-x="645" 
d="M78 979q0 68 39 85.5t61 17.5h358q40 0 68.5 -28t28.5 -58q0 -48 -28 -76.5t-69 -28.5h-256v-211h248q42 0 69 -28.5t27 -57.5q0 -50 -27 -77t-69 -27h-248v-398q0 -41 -21.5 -63.5t-40 -30.5t-51 -8t-61 30t-28.5 72v887z" />
    <glyph glyph-name="G" unicode="G" horiz-adv-x="1181" 
d="M1159 512q0 -48 -19 -119t-54 -133t-85 -113t-111.5 -87t-134.5 -56t-153 -20t-153 20t-137 56t-117 87t-90 113t-58 133t-21 147.5t21 147.5t77 163.5t188.5 169.5t289.5 77q278 0 478 -243q39 -55 13 -101t-56.5 -54t-61.5 -3t-59 41q-62 78 -139 120.5t-152 42.5
t-123 -13t-89 -36.5t-75.5 -56.5t-59 -73t-37.5 -86t-13 -95t13 -95t49.5 -106t122 -110t168.5 -50q211 0 280 102t85 160h-328q-62 0 -80 39t-18 68.5t28 59.5t70 30h442q41 0 62.5 -21.5t29 -39.5t7.5 -66z" />
    <glyph glyph-name="H" unicode="H" horiz-adv-x="1016" 
d="M940 82q0 -42 -22 -61t-40 -25t-40 -6q-44 0 -73.5 29.5t-29.5 72.5v396h-453v-396q0 -41 -21.5 -63.5t-40 -30.5t-51 -8t-61 30t-28.5 72v897q0 68 39 85.5t72 17.5t62 -30.5t29 -72.5v-309h453v309q0 68 40.5 85.5t62.5 17.5q42 0 72 -30t30 -73v-907z" />
    <glyph glyph-name="I" unicode="I" horiz-adv-x="381" 
d="M88 987q0 69 39 87t61 18q45 0 75 -31.5t30 -73.5v-893q0 -42 -22 -65t-41.5 -31t-41.5 -8q-43 0 -71.5 30.5t-28.5 73.5v893z" />
    <glyph glyph-name="J" unicode="J" horiz-adv-x="381" 
d="M75 -76.5q15 13.5 15 33.5v1030q0 69 39 87t61 18q45 0 75 -31.5t30 -73.5v-1030q0 -102 -74.5 -172.5t-169.5 -70.5t-172 58q-48 39 -30.5 103t67.5 69.5t73 -14.5t47 -20t39 13.5z" />
    <glyph glyph-name="K" unicode="K" horiz-adv-x="829" 
d="M280 92q0 -41 -21.5 -63.5t-40 -30.5t-51 -8t-61 30t-28.5 72v897q0 66 39 84.5t71.5 18.5t62 -31t29.5 -72v-254l344 328q33 29 60.5 29t55.5 -12.5t46.5 -60t-28.5 -97.5l-377 -363l409 -397q32 -32 32 -71t-21 -63q-34 -38 -73.5 -38t-71.5 28l-376 365v-291z" />
    <glyph glyph-name="L" unicode="L" horiz-adv-x="557" 
d="M172 0q-62 0 -78 37.5t-16 56.5v895q0 66 39 84.5t71.5 18.5t62 -31t29.5 -72v-801h166q64 0 79 -37t15 -57q0 -41 -28 -67.5t-66 -26.5h-274z" />
    <glyph glyph-name="M" unicode="M" horiz-adv-x="1308" 
d="M1062.5 1068q23.5 -18 29.5 -47l190 -911q13 -65 -42.5 -103.5t-100.5 -7.5t-53 71l-97 470l-14 99l-33 -97l-225 -542h-123l-230 551l-30 92l-14 -94l-101 -479q-8 -39 -33.5 -56.5t-45.5 -21.5t-40 0q-40 8 -63 43t-15 75l195 911q15 65 87 65q20 0 41 -14t31 -37
l278 -669l280 669q10 23 30 37t48 14q27 0 50.5 -18z" />
    <glyph glyph-name="N" unicode="N" horiz-adv-x="1179" 
d="M280 92q0 -41 -21.5 -63.5t-40 -30.5t-51 -8t-61 30t-28.5 72v888q0 46 31.5 76t76.5 30q46 0 76 -34l637 -724v661q0 67 39.5 85t71 18t62 -30.5t30.5 -72.5v-888q0 -68 -42 -87t-77 -19t-65 34l-638 726v-663z" />
    <glyph glyph-name="O" unicode="O" horiz-adv-x="1181" 
d="M958 541q0 149 -71 219t-133.5 107.5t-136.5 37.5t-120.5 -13.5t-108.5 -49t-111 -120t-49 -182.5q0 -147 109.5 -256.5t256 -109.5t255.5 109t109 258zM1049.5 203.5q-109.5 -107.5 -207.5 -163.5t-248 -56q-234 0 -369.5 133t-167 240t-31.5 183t21 147t77 165
t187.5 170t282.5 76q230 0 397.5 -164.5t167.5 -393.5t-109.5 -336.5z" />
    <glyph glyph-name="P" unicode="P" horiz-adv-x="706" 
d="M78 979q0 68 39 85.5t61 17.5h142q257 0 313.5 -117t56.5 -187t-21 -137.5t-105.5 -130t-243.5 -62.5h-40v-356q0 -41 -21.5 -63.5t-40 -30.5t-51 -8t-61 30t-28.5 72v887zM332 641q156 0 156 125q0 101 -62 113t-100 12h-46v-250h52z" />
    <glyph glyph-name="Q" unicode="Q" horiz-adv-x="1181" 
d="M954 532q0 157 -106.5 265t-255.5 108t-259 -108t-110 -258t109 -257.5t260 -107.5q74 0 160 47l-119 123q-44 50 -25.5 89t33.5 53q50 41 87.5 22.5t51.5 -33.5l117 -123q57 82 57 180zM545.5 -16q-192.5 0 -358 162.5t-165.5 392.5t168 394.5t399 164.5t398.5 -163
t167.5 -390q-1 -188 -117 -342l50 -53q44 -51 22 -100.5t-75.5 -65.5t-95.5 32l-48 58q-153 -90 -345.5 -90z" />
    <glyph glyph-name="R" unicode="R" horiz-adv-x="798" 
d="M316 1082q384 0 384 -318q0 -232 -223 -299l225 -321q35 -55 1 -110t-87.5 -45t-77.5 44l-262 379v-322q0 -39 -37.5 -79.5t-99 -13t-61.5 92.5v889q0 68 39 85.5t61 17.5h138zM346 639q154 0 154 127q0 106 -65 115.5t-97 9.5h-60v-252h68z" />
    <glyph glyph-name="S" unicode="S" horiz-adv-x="778" 
d="M398 920q-130 0 -130 -109q0 -76 185 -151q185 -74 239 -159t54 -169q0 -159 -97.5 -254.5t-276.5 -95.5t-294 104q-51 46 -37.5 103.5t61.5 64t90 -23.5q70 -70 191 -70q82 0 123 46t41 95q0 79 -49.5 117t-116.5 65t-101 41t-123 65.5t-89 206.5q0 151 94.5 228.5
t233.5 77.5t211 -51t82.5 -77t10.5 -53q0 -60 -50.5 -81t-107.5 22q-57 44 -87.5 51t-56.5 7z" />
    <glyph glyph-name="T" unicode="T" horiz-adv-x="715" 
d="M626 1082q38 0 60 -21t29.5 -38.5t7.5 -47.5t-29 -57t-68 -27h-167v-799q0 -42 -22 -64t-40.5 -30t-51 -8t-61 30t-28.5 72v799h-168q-61 0 -78.5 37t-17.5 66.5t29 58.5t67 29h538z" />
    <glyph glyph-name="U" unicode="U" horiz-adv-x="962" 
d="M680 987q0 69 39 87t61 18q44 0 74 -31.5t30 -73.5v-565q0 -198 -103 -318t-299 -120q-265 0 -334.5 153t-69.5 285v565q0 68 39 86.5t61 18.5q44 0 74 -31.5t30 -73.5v-547q0 -130 29 -178.5t68 -68t93 -19.5t86.5 10t64 34.5t44.5 79.5t13 142v547z" />
    <glyph glyph-name="V" unicode="V" horiz-adv-x="907" 
d="M370 52l-323 904q-23 65 25.5 109.5t97.5 22.5t66 -62l184 -518l34 -117l34 115l186 520q12 38 50 55.5t79 3.5t57 -51t2 -78l-327 -903q-22 -58 -83.5 -58t-81.5 57z" />
    <glyph glyph-name="W" unicode="W" horiz-adv-x="1595" 
d="M1169 -5q-57 0 -81 57l-292 677l-286 -676q-22 -58 -83.5 -58t-81.5 57l-300 908q-19 62 28 107.5t97 19.5t62 -63l172 -510l38 -137l50 131l228 524q22 54 82 54q59 0 81 -53l227 -521l49 -133l35 129l170 514q22 63 78 67.5t93.5 -32t18.5 -99.5l-304 -905
q-8 -26 -30.5 -42t-50.5 -16z" />
    <glyph glyph-name="X" unicode="X" horiz-adv-x="846" 
d="M768 137q31 -54 -8 -111q-22 -32 -63 -36t-66 14q-26 18 -35 35l-174 311l-172 -311q-22 -37 -51 -43q-108 -24 -133 66q-11 41 10 78l229 409l-219 391q-32 57 7 113q36 56 107 35q42 -13 62 -48l160 -284l154 284q20 35 51 45q82 25 119 -31q37 -55 6 -114l-216 -389z
" />
    <glyph glyph-name="Y" unicode="Y" horiz-adv-x="960" 
d="M584 94q0 -42 -39.5 -83.5t-103.5 -13.5t-64 97v358l-291 488q-34 61 2 112.5t91 40t75 -46.5l228 -376l224 376q33 55 89.5 46.5t84 -50.5t-5.5 -102l-290 -488v-358z" />
    <glyph glyph-name="Z" unicode="Z" horiz-adv-x="860" 
d="M142 0q-45 0 -76.5 31.5t-31.5 68.5t18 67l495 724h-407q-62 0 -78.5 37t-16.5 66.5t27.5 58.5t67.5 29h574q42 0 73 -31t31 -67t-18 -65l-497 -731h426q62 0 78.5 -37t16.5 -57q0 -38 -26.5 -66t-68.5 -28h-587z" />
    <glyph glyph-name="bracketleft" unicode="[" horiz-adv-x="450" 
d="M152 -242q-37 0 -64.5 27.5t-27.5 64.5v1213q0 36 26.5 64t65.5 28h170q58 0 75 -36.5t17 -56.5q0 -38 -28 -64.5t-64 -26.5h-78v-1029h78q59 0 75.5 -37t16.5 -55q0 -36 -27.5 -64t-64.5 -28h-170z" />
    <glyph glyph-name="backslash" unicode="\" horiz-adv-x="971" 
d="M116 1098q-26 52 2 87q42 53 90 39t62 -44l582 -1057q17 -35 8 -69q-10 -34 -34 -48q-25 -14 -53 -16t-50 15q-21 17 -29 34z" />
    <glyph glyph-name="bracketright" unicode="]" horiz-adv-x="450" 
d="M142 -242q-38 0 -58 20t-27 37t-7 35q0 37 26 64.5t66 27.5h78v1029h-78q-37 0 -64.5 26t-27.5 55q0 47 26.5 75t65.5 28h170q58 0 75 -36.5t17 -55.5v-1213q0 -57 -37 -74.5t-55 -17.5h-170z" />
    <glyph glyph-name="asciicircum" unicode="^" horiz-adv-x="872" 
d="M342 1066q30 60 94 60t92 -58l283 -574q23 -46 -12.5 -85t-76.5 -25.5t-54 42.5l-234 463l-229 -463q-23 -46 -75.5 -43t-68 43t0.5 68z" />
    <glyph glyph-name="underscore" unicode="_" horiz-adv-x="817" 
d="M76 -213q-55 0 -68.5 33.5t-13.5 59.5t23.5 49.5t58.5 23.5h666q54 0 68 -32.5t14 -49.5t-14.5 -50.5t-67.5 -33.5h-666z" />
    <glyph glyph-name="grave" unicode="`" horiz-adv-x="444" 
d="M104 942q-37 43 -5 99q32 52 82 46t69 -37l120 -182q27 -45 2 -86q-8 -12 -22 -22q-42 -28 -85 -2q-13 8 -23 20z" />
    <glyph glyph-name="a" unicode="a" horiz-adv-x="913" 
d="M447 760q101 0 196 -68q10 31 35.5 50.5t52.5 19.5q49 0 77 -29.5t28 -68.5v-574q0 -39 -28 -68.5t-66 -29.5q-79 0 -99 70q-95 -74 -201 -74q-184 0 -293.5 114t-109.5 278t109.5 272t298.5 108zM590.5 531.5q-56.5 56.5 -147.5 56.5t-151 -62t-60 -150t57.5 -150
t151.5 -62q95 0 150.5 61t55.5 155q0 95 -56.5 151.5z" />
    <glyph glyph-name="b" unicode="b" horiz-adv-x="917" 
d="M477 770q180 0 290.5 -112t110.5 -280t-117 -279t-275 -111q-114 0 -214 78q-13 -50 -46.5 -63t-51.5 -13q-38 0 -67 28t-29 70v1044q0 40 20.5 62t38 29.5t48.5 7.5t59 -29.5t28 -69.5v-417q91 55 205 55zM625.5 531.5q-58.5 60.5 -146.5 60.5q-152 0 -181.5 -82
t-29.5 -128q0 -94 55.5 -155t151.5 -61q95 0 152 62.5t57 152.5t-58.5 150.5z" />
    <glyph glyph-name="c" unicode="c" horiz-adv-x="780" 
d="M39 377q0 165 121.5 277t298.5 112q134 0 241 -68q52 -33 47 -80.5t-27 -65.5t-47 -24t-53 8q-65 32 -95.5 42t-73.5 10q-88 0 -152.5 -62.5t-64.5 -149.5t65 -150.5t146 -63.5t167 49q54 29 101.5 -6.5t33 -85.5t-46.5 -68q-111 -65 -267 -65t-275 113t-119 278z" />
    <glyph glyph-name="d" unicode="d" horiz-adv-x="917" 
d="M290.5 228q56.5 -62 149.5 -62q147 0 178 85t31 131q0 97 -55.5 153.5t-150.5 56.5q-94 0 -151.5 -61t-57.5 -151t56.5 -152zM440 770q116 0 206 -74l-1 436q0 41 21.5 62.5t39.5 29t48 7.5t58 -30t28 -69v-1044q0 -63 -39 -80.5t-57 -17.5q-36 0 -63.5 22t-35.5 54
q-100 -78 -213 -78q-158 0 -275.5 111.5t-117.5 279.5t111.5 279.5t289.5 111.5z" />
    <glyph glyph-name="e" unicode="e" horiz-adv-x="860" 
d="M740 322h-506q16 -73 73 -117.5t145 -44.5t144 70q39 45 74.5 36.5t50.5 -18.5q48 -41 38 -83.5t-59.5 -82.5t-105 -69t-138.5 -29q-82 0 -135 15t-97 41t-78.5 63t-58 81t-36 93t-12.5 100t12.5 100t49 114.5t127 120t191.5 54.5q180 0 281 -97t124 -264
q4 -34 -22 -58.5t-62 -24.5zM609 488q-45 100 -171 100q-89 0 -129 -39t-53 -61h353z" />
    <glyph glyph-name="f" unicode="f" horiz-adv-x="485" 
d="M373 1059h-9q-45 0 -49.5 -28.5t-5.5 -43.5v-237h95q57 0 72.5 -35t15.5 -62.5t-25.5 -53t-62.5 -25.5h-95v-486q0 -62 -39 -80t-68.5 -18t-58.5 29t-29 69v486h-8q-58 0 -73 34.5t-15 62t26 53.5t62 26h8v192q0 130 38 184q69 107 206 107q98 0 115 -39.5t12 -64.5
q-8 -41 -38.5 -60.5t-51.5 -14.5t-22 5z" />
    <glyph glyph-name="g" unicode="g" horiz-adv-x="917" 
d="M446 756q123 0 199 -70q13 50 45 62t51 12q38 0 68.5 -29t30.5 -71v-609q0 -223 -82 -327q-118 -146 -334 -146t-290 108t-86 153q-16 64 12.5 108t88.5 31.5t79 -74.5q41 -150 206 -150t188 92.5t23 153.5v46q-92 -66 -209 -66q-174 0 -285.5 117.5t-111.5 277.5
q0 159 115.5 270t291.5 111zM590.5 527.5q-58.5 56.5 -149.5 56.5t-149 -62.5t-58 -151.5q0 -88 59 -151t152 -63t148.5 61.5t55.5 157.5t-58.5 152.5z" />
    <glyph glyph-name="h" unicode="h" horiz-adv-x="809" 
d="M428 766q305 0 305 -324v-354q0 -62 -39 -80t-68.5 -18t-58.5 29t-29 69v354q0 76 -25.5 112t-83.5 36t-85.5 -15.5t-49.5 -54.5t-22 -150v-282q0 -63 -39 -80.5t-68.5 -17.5t-58 28.5t-28.5 69.5v1046q0 40 20.5 62t38 29.5t48.5 7.5t59 -29.5t28 -69.5v-419
q71 51 156 51z" />
    <glyph glyph-name="i" unicode="i" horiz-adv-x="370" 
d="M282 662v-574q0 -63 -39 -80.5t-67.5 -17.5t-58 28t-29.5 70v574q0 62 38 80t67.5 18t59 -28t29.5 -70zM312 1005.5q0 -49.5 -38 -84t-76 -34.5q-39 0 -61.5 9.5t-39.5 25.5t-26 37.5t-9 46t9 46.5t26 38t40 25t50 9t49.5 -9t49 -34.5t26.5 -75z" />
    <glyph glyph-name="j" unicode="j" horiz-adv-x="372" 
d="M282 662v-1012q0 -41 -21 -62t-39 -28.5t-47.5 -7.5t-58 28.5t-28.5 69.5v1012q0 62 38 80t67.5 18t59 -28t29.5 -70zM274.5 921q-37.5 -34 -76.5 -34q-65 0 -100.5 33.5t-35.5 71.5t9 59t26 37.5t40 26t50 9.5t49.5 -9.5t49 -36t26.5 -74.5q0 -49 -37.5 -83z" />
    <glyph glyph-name="k" unicode="k" horiz-adv-x="782" 
d="M272 88q0 -63 -39 -80.5t-68.5 -17.5t-58 28.5t-28.5 69.5v1046q0 40 20.5 62t38 29.5t48.5 7.5t59 -29.5t28 -69.5v-560l220 159q72 54 132 -2q28 -28 28 -69.5t-30 -63.5l-235 -176l277 -270q28 -28 28 -56.5t-6 -46t-20 -31.5q-28 -28 -68 -28t-66 26l-260 264v-192z
" />
    <glyph glyph-name="l" unicode="l" horiz-adv-x="372" 
d="M282 88q0 -63 -39 -80.5t-67.5 -17.5t-58 28t-29.5 70v1048q0 40 21 62t38 29.5t48 7.5t59 -29.5t28 -69.5v-1048z" />
    <glyph glyph-name="m" unicode="m" horiz-adv-x="1157" 
d="M167 762q88 0 105 -72v-2q61 70 153.5 70t166.5 -82q78 84 202 84q254 0 270 -139t16 -177v-356q0 -62 -40 -80t-60 -18q-40 0 -69 29t-29 69v364q0 73 -20.5 104.5t-86.5 31.5t-82.5 -55t-16.5 -93v-354q0 -38 -21 -59t-39 -29t-48 -8t-58 28t-28 68v350
q0 83 -20.5 117.5t-71.5 34.5t-85.5 -58t-34.5 -139v-305q0 -60 -38 -78t-58 -18q-39 0 -67.5 28.5t-28.5 67.5v578q0 41 30 69.5t59 28.5z" />
    <glyph glyph-name="n" unicode="n" horiz-adv-x="794" 
d="M166 762q95 0 104 -78v-6q68 82 158 82q160 0 225.5 -84.5t65.5 -231.5v-358q0 -61 -39.5 -78.5t-68.5 -17.5t-58 29t-29 67v358q0 121 -42 131.5t-70 10.5q-58 0 -100 -67t-42 -151v-282q0 -60 -38 -78t-58 -18q-39 0 -67.5 28.5t-28.5 67.5v580q0 39 29.5 67.5
t58.5 28.5z" />
    <glyph glyph-name="o" unicode="o" horiz-adv-x="905" 
d="M609 528.5q-65 59.5 -157 59.5t-154 -60.5t-62 -149.5t63 -150.5t154 -61.5t156 59.5t65 151.5t-65 151.5zM868 378q0 -167 -120.5 -279.5t-294.5 -112.5t-294 113.5t-120 276.5t120.5 277.5t293.5 114.5t294 -111.5t121 -278.5z" />
    <glyph glyph-name="p" unicode="p" horiz-adv-x="899" 
d="M272 -350q0 -41 -21 -62t-39 -28.5t-48.5 -7.5t-58 29t-27.5 69v1012q0 65 39 82.5t66 17.5t53 -20t36 -54q75 69 215 75t257.5 -107.5t117.5 -282.5q0 -170 -107.5 -280.5t-285.5 -110.5q-113 0 -197 53v-385zM610.5 523.5q-55.5 64.5 -143.5 64.5t-142.5 -64
t-54.5 -164q0 -140 77.5 -169t121.5 -29t79.5 16t76.5 59.5t41 132.5t-55.5 153.5z" />
    <glyph glyph-name="q" unicode="q" horiz-adv-x="901" 
d="M41 371q0 57 15 109.5t54.5 119t139.5 121.5t206 40t175 -73q12 52 45.5 63t52.5 11q40 0 68.5 -30t28.5 -70v-1012q0 -39 -21 -61t-38.5 -29.5t-47 -7.5t-59 28t-29.5 70v385q-143 -84 -333.5 -33t-223.5 181.5t-33 187.5zM293 220.5q55 -58.5 143 -58.5t142.5 53.5
t54.5 144.5q0 158 -76.5 193t-120.5 35t-80.5 -17t-77 -63t-40.5 -138q0 -91 55 -149.5z" />
    <glyph glyph-name="r" unicode="r" horiz-adv-x="522" 
d="M272 690q53 68 126 68t121.5 -43t1.5 -106t-105 -37q-97 42 -120.5 -62.5t-23.5 -161.5v-260q0 -63 -39 -80.5t-68.5 -17.5t-58 28.5t-28.5 69.5v574q0 65 39 82.5t57 17.5q36 0 63.5 -20.5t34.5 -49.5v-2z" />
    <glyph glyph-name="s" unicode="s" horiz-adv-x="624" 
d="M301 158q50 0 75.5 25t25.5 51q0 37 -23.5 53t-58.5 26q-35 11 -62.5 22t-109.5 56.5t-82 151.5q0 105 73 164t154 59q82 0 128.5 -24t70.5 -52t33 -67.5t-37 -73.5q-42 -36 -76 -17.5t-53 39.5t-41 21q-32 0 -45 -13t-13 -27t14 -25t38 -21t54 -20t129 -54.5t99 -174.5
q0 -126 -82 -200.5t-198 -74.5q-187 0 -267 170q-25 56 16 101.5t87.5 28.5t64.5 -52q36 -72 86 -72z" />
    <glyph glyph-name="t" unicode="t" horiz-adv-x="510" 
d="M410 750q57 0 72.5 -35t15.5 -62.5t-25.5 -53t-62.5 -25.5h-72v-486q0 -63 -39 -80.5t-68.5 -17.5t-59 28t-29.5 70v486h-28q-58 0 -73 34.5t-15 62t26 53.5t62 26h28v180q0 63 39 80.5t69 17.5t59 -29t29 -69v-180h72z" />
    <glyph glyph-name="u" unicode="u" horiz-adv-x="796" 
d="M524 662q0 63 39 80.5t58 17.5q38 0 68 -28t30 -70v-353q0 -235 -114.5 -280t-206.5 -45q-256 0 -288 129t-32 199v350q0 63 38 80.5t58 17.5q39 0 68.5 -28t29.5 -70v-350q0 -82 22.5 -108t46 -34t57.5 -8q66 0 96 32.5t30 117.5v350z" />
    <glyph glyph-name="v" unicode="v" horiz-adv-x="778" 
d="M390 -5q-60 0 -82 53l-267 574q-26 57 14.5 106t90.5 31t69 -55l153 -332l25 -65l23 68l147 329q26 58 80 56.5t87.5 -41t7.5 -97.5l-263 -572q-25 -55 -85 -55z" />
    <glyph glyph-name="w" unicode="w" horiz-adv-x="1233" 
d="M542 704q23 50 78 50q56 0 78 -51l132 -307l28 -84l31 81l137 311q25 56 77 56t70.5 -21.5t24.5 -39t6 -36.5t-8 -37l-256 -576q-25 -55 -85 -55q-59 0 -81 53l-158 360l-150 -358q-10 -24 -33 -39.5t-51 -15.5q-60 0 -82 53l-261 576q-26 58 8.5 97t85.5 39t80 -58
l141 -315l29 -73l25 71z" />
    <glyph glyph-name="x" unicode="x" horiz-adv-x="786" 
d="M715 142q37 -49 14 -93t-52 -53q-70 -20 -107 30l-181 222l-180 -224q-40 -47 -100 -31q-59 16 -66 80q-4 39 21 69l202 251l-182 217q-39 45 -11 101t92 48q37 -4 63 -34l159 -195l158 193q36 51 99 33q42 -9 58 -46q30 -54 -10 -104l-178 -217z" />
    <glyph glyph-name="y" unicode="y" horiz-adv-x="866" 
d="M838 672q0 -28 -8 -46l-453 -1017q-25 -57 -87 -57t-88 58q-6 18 -6 36t7 36l145 330l-303 614q-26 55 15 103q25 31 54 31q74 0 101 -54l235 -468l210 468q24 54 89 54q40 0 65 -30q24 -30 24 -58z" />
    <glyph glyph-name="z" unicode="z" horiz-adv-x="745" 
d="M124 0q-39 0 -68.5 28t-29.5 69t26 69l376 410h-301q-58 0 -72 33.5t-14 61t24.5 53.5t61.5 26h497q39 0 67.5 -28.5t28.5 -65.5t-25 -68l-379 -414h323q58 0 72 -35t14 -62.5t-24.5 -52t-61.5 -24.5h-515z" />
    <glyph glyph-name="braceleft" unicode="{" horiz-adv-x="467" 
d="M318 223v-233q0 -48 68 -53q12 -1 44.5 -18t25.5 -79q-5 -33 -34.5 -56.5t-57.5 -20.5t-48.5 8t-42 13t-41.5 21t-38 31q-59 59 -59 205v223q0 62 -34.5 91t-61.5 45v118q57 30 76.5 60t19.5 69v227q0 129 64.5 204t154.5 75q59 0 91.5 -47t1.5 -85.5t-53 -40.5
q-76 -7 -76 -52v-244q0 -158 -70 -228q70 -74 70 -233z" />
    <glyph glyph-name="bar" unicode="|" horiz-adv-x="446" 
d="M314 66q0 -58 -36 -74t-55 -16t-53.5 15t-34.5 75v1060q0 60 34.5 75t53.5 15t55 -15.5t36 -74.5v-1060z" />
    <glyph glyph-name="braceright" unicode="}" horiz-adv-x="467" 
d="M330 264v-223q0 -145 -61 -206t-161 -71q-33 -4 -62.5 18.5t-34.5 48.5q-8 44 13.5 73.5t44.5 31.5q79 7 79 54v233q0 160 69 233q-69 69 -69 228v244q0 46 -68 51q-30 2 -61 40.5t1.5 87.5t82.5 48q100 -3 163.5 -77.5t63.5 -203.5v-227q0 -59 33 -86t63 -43v-118
q-96 -51 -96 -136z" />
    <glyph glyph-name="asciitilde" unicode="~" horiz-adv-x="938" 
d="M315 524q37 0 77.5 -11t127 -54t102.5 -43t29 10t25 23.5t22 27.5t16 22q21 33 53.5 41t56.5 -6t50 -47t-8 -86t-92 -115q-56 -54 -135 -54t-172 55t-143 55q-31 0 -82 -65q-50 -65 -108.5 -51.5t-67 60.5t14.5 76q23 30 46.5 59t52 52t63.5 37t72 14z" />
    <glyph glyph-name="saraileftthai" 
d="M-428 1216q56 0 71 -35t15 -53q0 -33 -25 -59.5t-61 -26.5h-480q-55 0 -70.5 34t-15.5 52t15 53t71 35h480z" />
    <glyph glyph-name="saraileftthai" unicode="&#xf701;" 
d="M-428 1216q56 0 71 -35t15 -53q0 -33 -25 -59.5t-61 -26.5h-480q-55 0 -70.5 34t-15.5 52t15 53t71 35h480z" />
    <glyph glyph-name="saraiileftthai" 
d="M-908 1042q-55 0 -70.5 34t-15.5 52t15 53t71 35h380v40q0 58 34.5 73t62 15t53.5 -26t26 -62v-128q0 -55 -34 -70.5t-52 -15.5h-470z" />
    <glyph glyph-name="saraiileftthai" unicode="&#xf702;" 
d="M-908 1042q-55 0 -70.5 34t-15.5 52t15 53t71 35h380v40q0 58 34.5 73t62 15t53.5 -26t26 -62v-128q0 -55 -34 -70.5t-52 -15.5h-470z" />
    <glyph glyph-name="saraueleftthai" 
d="M-490 1340q60 0 104 -44t44 -90q0 -75 -43.5 -119.5t-104.5 -44.5h-418q-55 0 -70.5 34t-15.5 52t15 53t71 35h271q19 84 69 104t78 20zM-540 1190q0 -10 4 -19t10.5 -16t15 -11t18.5 -4t19 4t16 11t11 16t4 19t-4 19t-11 15.5t-16 10.5t-19 4t-18.5 -4t-15 -10.5
t-10.5 -15.5t-4 -19z" />
    <glyph glyph-name="saraueleftthai" unicode="&#xf703;" 
d="M-490 1340q60 0 104 -44t44 -90q0 -75 -43.5 -119.5t-104.5 -44.5h-418q-55 0 -70.5 34t-15.5 52t15 53t71 35h271q19 84 69 104t78 20zM-540 1190q0 -10 4 -19t10.5 -16t15 -11t18.5 -4t19 4t16 11t11 16t4 19t-4 19t-11 15.5t-16 10.5t-19 4t-18.5 -4t-15 -10.5
t-10.5 -15.5t-4 -19z" />
    <glyph glyph-name="saraueeleftthai" 
d="M-908 1042q-55 0 -70.5 34t-15.5 52t15 53t71 35h142v42q0 51 33 66.5t49 15.5q34 0 59 -25t25 -57v-42h82v40q0 54 33.5 69t50.5 15t49.5 -15.5t32.5 -68.5v-128q0 -55 -34 -70.5t-52 -15.5h-470z" />
    <glyph glyph-name="saraueeleftthai" unicode="&#xf704;" 
d="M-908 1042q-55 0 -70.5 34t-15.5 52t15 53t71 35h142v42q0 51 33 66.5t49 15.5q34 0 59 -25t25 -57v-42h82v40q0 54 33.5 69t50.5 15t49.5 -15.5t32.5 -68.5v-128q0 -55 -34 -70.5t-52 -15.5h-470z" />
    <glyph glyph-name="maieklowleftthai" 
d="M-584 1329q0 34 22 54.5t39.5 27t45 6.5t56 -26.5t28.5 -61.5v-209q0 -34 -21.5 -54t-38.5 -27t-44.5 -7t-57 27.5t-29.5 60.5v209z" />
    <glyph glyph-name="maieklowleftthai" unicode="&#xf705;" 
d="M-584 1329q0 34 22 54.5t39.5 27t45 6.5t56 -26.5t28.5 -61.5v-209q0 -34 -21.5 -54t-38.5 -27t-44.5 -7t-57 27.5t-29.5 60.5v209z" />
    <glyph glyph-name="maitholowleftthai" 
d="M-645 1329.5q49 -42.5 49 -113.5v-9q0 -9 -2 -13l18 2h180q48 0 60 -33t12 -47t-12 -44t-60 -30h-421q17 38 36 75t29 57q17 34 12 50.5t-19 16.5q-15 0 -24 -6t-21.5 -8t-25 1t-23 10.5t-18 19t-9.5 24t1 24.5t10.5 22.5t29 27t85.5 16.5t113 -42.5z" />
    <glyph glyph-name="maitholowleftthai" unicode="&#xf706;" 
d="M-645 1329.5q49 -42.5 49 -113.5v-9q0 -9 -2 -13l18 2h180q48 0 60 -33t12 -47t-12 -44t-60 -30h-421q17 38 36 75t29 57q17 34 12 50.5t-19 16.5q-15 0 -24 -6t-21.5 -8t-25 1t-23 10.5t-18 19t-9.5 24t1 24.5t10.5 22.5t29 27t85.5 16.5t113 -42.5z" />
    <glyph glyph-name="maitrilowleftthai" 
d="M-588 1364q79 0 130.5 -47t55.5 -119h9q51 0 64 -31t13 -47q0 -31 -21.5 -54.5t-55.5 -23.5h-248q8 13 55.5 81t22 87t-45 7.5t-15.5 -45.5h-109q8 42 -16.5 48.5t-35.5 -1t-11 -27.5t12 -30q21 -20 23 -50t-13 -46q-25 -26 -54 -28.5t-48 11.5q-84 62 -84 136
q0 81 53.5 130t115.5 49t111 -38q50 38 92 38z" />
    <glyph glyph-name="maitrilowleftthai" unicode="&#xf707;" 
d="M-588 1364q79 0 130.5 -47t55.5 -119h9q51 0 64 -31t13 -47q0 -31 -21.5 -54.5t-55.5 -23.5h-248q8 13 55.5 81t22 87t-45 7.5t-15.5 -45.5h-109q8 42 -16.5 48.5t-35.5 -1t-11 -27.5t12 -30q21 -20 23 -50t-13 -46q-25 -26 -54 -28.5t-48 11.5q-84 62 -84 136
q0 81 53.5 130t115.5 49t111 -38q50 38 92 38z" />
    <glyph glyph-name="maichattawalowleftthai" 
d="M-461 1168v-44q0 -36 -19.5 -57t-36.5 -28t-56 -7t-55.5 36t-16.5 56v44h-55q-58 0 -72 33t-14 51q0 34 24.5 60t61.5 26h55v44q0 37 19.5 57.5t36.5 27.5t46.5 7t55.5 -27.5t26 -64.5v-44h57q57 0 71.5 -34t14.5 -52q0 -36 -24 -60t-62 -24h-57z" />
    <glyph glyph-name="maichattawalowleftthai" unicode="&#xf708;" 
d="M-461 1168v-44q0 -36 -19.5 -57t-36.5 -28t-56 -7t-55.5 36t-16.5 56v44h-55q-58 0 -72 33t-14 51q0 34 24.5 60t61.5 26h55v44q0 37 19.5 57.5t36.5 27.5t46.5 7t55.5 -27.5t26 -64.5v-44h57q57 0 71.5 -34t14.5 -52q0 -36 -24 -60t-62 -24h-57z" />
    <glyph glyph-name="thanthakhatlowleftthai" 
d="M-677.5 1285.5q47.5 43.5 122.5 43.5h149q52 0 65 -29t13 -52t-22.5 -43.5t-55.5 -20.5h-130q-38 0 -30.5 -19t17.5 -29l21 -20q50 -46 0 -106q-22 -22 -56.5 -22t-54.5 20t-35.5 40t-33 52.5t-17.5 87.5q0 54 47.5 97.5z" />
    <glyph glyph-name="thanthakhatlowleftthai" unicode="&#xf709;" 
d="M-677.5 1285.5q47.5 43.5 122.5 43.5h149q52 0 65 -29t13 -52t-22.5 -43.5t-55.5 -20.5h-130q-38 0 -30.5 -19t17.5 -29l21 -20q50 -46 0 -106q-22 -22 -56.5 -22t-54.5 20t-35.5 40t-33 52.5t-17.5 87.5q0 54 47.5 97.5z" />
    <glyph glyph-name="maieklowrightthai" 
d="M-270 1329q0 37 22 56t39 25.5t45 6.5t56 -26t28 -62v-209q0 -35 -21 -54.5t-38 -26.5t-44 -7t-57 26t-30 62v209z" />
    <glyph glyph-name="maieklowrightthai" unicode="&#xf70a;" 
d="M-270 1329q0 37 22 56t39 25.5t45 6.5t56 -26t28 -62v-209q0 -35 -21 -54.5t-38 -26.5t-44 -7t-57 26t-30 62v209z" />
    <glyph glyph-name="maitholowrightthai" 
d="M-504 1372q112 0 140 -60t28 -82v-16q0 -16 -2 -20l18 2h180q48 0 60 -33t12 -47t-12 -44t-60 -30h-425q20 38 39.5 75t29.5 57q17 34 12 50.5t-18 16.5q-14 0 -24 -6t-22.5 -8t-25 1t-29.5 15t-21 38t19 58.5t101 32.5z" />
    <glyph glyph-name="maitholowrightthai" unicode="&#xf70b;" 
d="M-504 1372q112 0 140 -60t28 -82v-16q0 -16 -2 -20l18 2h180q48 0 60 -33t12 -47t-12 -44t-60 -30h-425q20 38 39.5 75t29.5 57q17 34 12 50.5t-18 16.5q-14 0 -24 -6t-22.5 -8t-25 1t-29.5 15t-21 38t19 58.5t101 32.5z" />
    <glyph glyph-name="maitrilowrightthai" 
d="M-534 1224q-32 0 -32 -32q0 -17 18.5 -35.5t21 -56t-43.5 -58t-100.5 30.5t-54.5 102q0 90 53.5 139.5t118.5 49.5t109 -35q47 35 90 35q82 0 135 -47.5t53 -118.5v-10h98q53 0 65.5 -29t12.5 -52.5t-22 -44t-56 -20.5h-338q8 13 25 36t32 52.5t19 41.5q8 21 -0.5 35.5
t-23.5 14.5q-35 0 -35 -50h-109q-4 52 -36 52z" />
    <glyph glyph-name="maitrilowrightthai" unicode="&#xf70c;" 
d="M-534 1224q-32 0 -32 -32q0 -17 18.5 -35.5t21 -56t-43.5 -58t-100.5 30.5t-54.5 102q0 90 53.5 139.5t118.5 49.5t109 -35q47 35 90 35q82 0 135 -47.5t53 -118.5v-10h98q53 0 65.5 -29t12.5 -52.5t-22 -44t-56 -20.5h-338q8 13 25 36t32 52.5t19 41.5q8 21 -0.5 35.5
t-23.5 14.5q-35 0 -35 -50h-109q-4 52 -36 52z" />
    <glyph glyph-name="maichattawalowrightthai" 
d="M-78 1168v-44q0 -38 -20 -58t-36.5 -27t-35.5 -7t-55.5 15.5t-36.5 76.5v44h-56q-56 0 -71 33t-15 51t16 52t70 34h56v44q0 61 36.5 76.5t64.5 15.5t55.5 -26t27.5 -66v-44h58q55 0 70.5 -34t15.5 -52t-15 -51t-71 -33h-58z" />
    <glyph glyph-name="maichattawalowrightthai" unicode="&#xf70d;" 
d="M-78 1168v-44q0 -38 -20 -58t-36.5 -27t-35.5 -7t-55.5 15.5t-36.5 76.5v44h-56q-56 0 -71 33t-15 51t16 52t70 34h56v44q0 61 36.5 76.5t64.5 15.5t55.5 -26t27.5 -66v-44h58q55 0 70.5 -34t15.5 -52t-15 -51t-71 -33h-58z" />
    <glyph glyph-name="thanthakhatlowrightthai" 
d="M-372 1302q48 44 122 44h150q47 0 62.5 -29t15.5 -45t-15 -44t-63 -28h-132q-35 0 -28.5 -18.5t16.5 -28.5l21 -21q21 -21 21 -64t-50 -59.5t-84 17.5q-84 84 -84 158t48 118z" />
    <glyph glyph-name="thanthakhatlowrightthai" unicode="&#xf70e;" 
d="M-372 1302q48 44 122 44h150q47 0 62.5 -29t15.5 -45t-15 -44t-63 -28h-132q-35 0 -28.5 -18.5t16.5 -28.5l21 -21q21 -21 21 -64t-50 -59.5t-84 17.5q-84 84 -84 158t48 118z" />
    <glyph glyph-name="maihanakatleftthai" 
d="M-45 1218q58 0 72 -34.5t14 -63t-26 -52.5t-60 -24h-414q-120 0 -143.5 67t-23.5 103v44q0 56 34 71t51.5 15t52 -15.5t34.5 -70.5q0 -21 5 -30.5t22 -9.5h382z" />
    <glyph glyph-name="maihanakatleftthai" unicode="&#xf710;" 
d="M-45 1218q58 0 72 -34.5t14 -63t-26 -52.5t-60 -24h-414q-120 0 -143.5 67t-23.5 103v44q0 56 34 71t51.5 15t52 -15.5t34.5 -70.5q0 -21 5 -30.5t22 -9.5h382z" />
    <glyph glyph-name="nikhahitleftthai" 
d="M-479 1204q0 18 -4 28t-11.5 17.5t-17 12t-27 4.5t-32.5 -16.5t-15 -39.5q0 -24 15 -38.5t38 -14.5t38.5 14.5t15.5 32.5zM-350 1212.5q0 -37.5 -14.5 -71t-39 -58t-58 -39t-71 -14.5t-70.5 14.5t-58 39t-39.5 58t-14.5 71t14.5 70.5t39.5 58t58 39t70.5 14t71 -14
t58 -39t39 -58t14.5 -70.5z" />
    <glyph glyph-name="nikhahitleftthai" unicode="&#xf711;" 
d="M-479 1204q0 18 -4 28t-11.5 17.5t-17 12t-27 4.5t-32.5 -16.5t-15 -39.5q0 -24 15 -38.5t38 -14.5t38.5 14.5t15.5 32.5zM-350 1212.5q0 -37.5 -14.5 -71t-39 -58t-58 -39t-71 -14.5t-70.5 14.5t-58 39t-39.5 58t-14.5 71t14.5 70.5t39.5 58t58 39t70.5 14t71 -14
t58 -39t39 -58t14.5 -70.5z" />
    <glyph glyph-name="maitaikhuleftthai" 
d="M-1000 1272q0 103 57 171.5t155 68.5h410q51 0 65 -31t14 -55t-22 -48t-57 -24h-410q-34 0 -41 -34t-7 -48q0 -32 12.5 -53t40.5 -21t35 30q14 56 79 56t77 -54q6 -34 40 -34t44 42t63.5 49t79.5 -41.5t-25.5 -126t-157.5 -77.5q-63 0 -119 44q-54 -44 -110 -44
q-57 0 -96 16.5t-83 63.5t-44 150z" />
    <glyph glyph-name="maitaikhuleftthai" unicode="&#xf712;" 
d="M-1000 1272q0 103 57 171.5t155 68.5h410q51 0 65 -31t14 -55t-22 -48t-57 -24h-410q-34 0 -41 -34t-7 -48q0 -32 12.5 -53t40.5 -21t35 30q14 56 79 56t77 -54q6 -34 40 -34t44 42t63.5 49t79.5 -41.5t-25.5 -126t-157.5 -77.5q-63 0 -119 44q-54 -44 -110 -44
q-57 0 -96 16.5t-83 63.5t-44 150z" />
    <glyph glyph-name="maiekupperleftthai" 
d="M-528 1661q0 37 19 56t35 25.5t34 6.5q35 0 60.5 -25.5t25.5 -62.5v-143q0 -59 -34 -73.5t-52 -14.5t-53 14t-35 74v143z" />
    <glyph glyph-name="maiekupperleftthai" unicode="&#xf713;" 
d="M-528 1661q0 37 19 56t35 25.5t34 6.5q35 0 60.5 -25.5t25.5 -62.5v-143q0 -59 -34 -73.5t-52 -14.5t-53 14t-35 74v143z" />
    <glyph glyph-name="maithoupperleftthai" 
d="M-419 1716.5q49 -42.5 49 -112.5v-9q0 -9 -2 -14l18 2h214q48 0 60 -28.5t12 -43t-11.5 -43t-60.5 -28.5h-456q28 49 45 82t24 46q13 25 9 43t-19 18q-15 -1 -24 -7q-10 -6 -22.5 -8t-24.5 1t-23 10.5t-30.5 39.5t38.5 74q27 20 91 20t113 -42.5z" />
    <glyph glyph-name="maithoupperleftthai" unicode="&#xf714;" 
d="M-419 1716.5q49 -42.5 49 -112.5v-9q0 -9 -2 -14l18 2h214q48 0 60 -28.5t12 -43t-11.5 -43t-60.5 -28.5h-456q28 49 45 82t24 46q13 25 9 43t-19 18q-15 -1 -24 -7q-10 -6 -22.5 -8t-24.5 1t-23 10.5t-30.5 39.5t38.5 74q27 20 91 20t113 -42.5z" />
    <glyph glyph-name="maitriupperleftthai" 
d="M-335 1745q120 0 149.5 -64.5t31.5 -103.5l17 2h75q47 0 58.5 -27.5t11.5 -42t-12 -42t-58 -27.5h-313q107 144 76 158.5t-39 14.5q-17 0 -29.5 -14t-8.5 -41h-96q8 58 -38 58q-10 0 -21 -9t-13 -25t11 -29q22 -22 23 -52t-13 -45q-23 -24 -50 -24t-47 16
q-74 49 -74 125.5t51 124t114 47.5q64 0 107 -43q43 43 87 43z" />
    <glyph glyph-name="maitriupperleftthai" unicode="&#xf715;" 
d="M-335 1745q120 0 149.5 -64.5t31.5 -103.5l17 2h75q47 0 58.5 -27.5t11.5 -42t-12 -42t-58 -27.5h-313q107 144 76 158.5t-39 14.5q-17 0 -29.5 -14t-8.5 -41h-96q8 58 -38 58q-10 0 -21 -9t-13 -25t11 -29q22 -22 23 -52t-13 -45q-23 -24 -50 -24t-47 16
q-74 49 -74 125.5t51 124t114 47.5q64 0 107 -43q43 43 87 43z" />
    <glyph glyph-name="maichattawaupperleftthai" 
d="M-528 1706v33q0 60 34.5 74t62.5 14t53.5 -25.5t25.5 -62.5v-33h45q52 0 64.5 -30.5t12.5 -56t-22 -47.5t-55 -22h-45v-30q0 -37 -19 -56t-35 -25.5t-34.5 -6.5t-53 14t-34.5 74v30h-46q-51 0 -64.5 30.5t-13.5 56t23.5 47.5t54.5 22h46z" />
    <glyph glyph-name="maichattawaupperleftthai" unicode="&#xf716;" 
d="M-528 1706v33q0 60 34.5 74t62.5 14t53.5 -25.5t25.5 -62.5v-33h45q52 0 64.5 -30.5t12.5 -56t-22 -47.5t-55 -22h-45v-30q0 -37 -19 -56t-35 -25.5t-34.5 -6.5t-53 14t-34.5 74v30h-46q-51 0 -64.5 30.5t-13.5 56t23.5 47.5t54.5 22h46z" />
    <glyph glyph-name="thanthakhatupperleftthai" 
d="M-639 1490q0 117 66.5 141t103.5 24h129q32 0 50.5 -17.5t25 -32.5t6.5 -41t-25 -49.5t-57 -23.5h-116q-15 0 -20 -7.5t7 -19.5l19 -16q24 -24 24 -70.5t-32 -58t-57 -11.5t-48 23q-76 77 -76 159z" />
    <glyph glyph-name="thanthakhatupperleftthai" unicode="&#xf717;" 
d="M-639 1490q0 117 66.5 141t103.5 24h129q32 0 50.5 -17.5t25 -32.5t6.5 -41t-25 -49.5t-57 -23.5h-116q-15 0 -20 -7.5t7 -19.5l19 -16q24 -24 24 -70.5t-32 -58t-57 -11.5t-48 23q-76 77 -76 159z" />
    <glyph glyph-name="uni00A0" unicode="&#xa0;" horiz-adv-x="512" 
 />
    <glyph glyph-name="cent" unicode="&#xa2;" horiz-adv-x="932" 
d="M602 104q0 -57 -35 -72.5t-62 -15.5t-53 26t-26 62v62q-128 36 -207 142t-79 247t80 248t206 139v54q0 57 35 72.5t62 15.5t53 -26t26 -62v-46q107 -24 172 -76q50 -31 43 -80.5t-48.5 -80.5t-80.5 -2t-86 51v-412q24 11 42 24.5t34 24.5t34 14t35 -0.5t32.5 -14t30 -34
t5 -57.5t-39.5 -59q-69 -58 -173 -84v-60zM426 748q-106 -64 -106 -194t106 -192v386z" />
    <glyph glyph-name="sterling" unicode="&#xa3;" horiz-adv-x="897" 
d="M371.5 853.5q-43.5 -47.5 -43.5 -130.5v-111h116q64 0 79 -37t15 -57q0 -41 -28 -67.5t-66 -26.5h-116v-236h410q59 0 76.5 -37t17.5 -57q0 -38 -28 -66t-66 -28h-613q-61 0 -78 37t-17 57q0 38 28 66t67 28v236q-61 0 -78 37t-17 57q0 38 28 66t67 28v111
q0 151 97.5 263t249.5 112q153 0 251 -90.5t127 -235.5q13 -64 -43.5 -103t-101.5 -7.5t-52 65.5q-6 34 -19.5 64t-48.5 70t-103 40q-67 0 -110.5 -47.5z" />
    <glyph glyph-name="yen" unicode="&#xa5;" horiz-adv-x="868" 
d="M742 768q59 0 75.5 -36t16.5 -56q0 -38 -27 -65t-65 -27h-124l-44 -76h168q59 0 75.5 -36t16.5 -56q0 -38 -27 -65t-65 -27h-204v-230q0 -42 -22 -65t-41 -31t-51.5 -8t-62 31t-29.5 73v230h-199q-59 0 -75.5 36t-16.5 56q0 36 26 64t66 28h164l-43 76h-121
q-59 0 -75.5 36t-16.5 56q0 36 26 64t66 28h13l-105 174q-47 85 33 138q58 32 92 7t45 -43l223 -374l226 374q33 59 87 50.5t85 -50.5t-2 -102l-103 -174h15z" />
    <glyph glyph-name="copyright" unicode="&#xa9;" horiz-adv-x="1212" 
d="M606 184q-54 0 -115.5 28t-131.5 102.5t-70 221.5t97.5 249t241.5 102q109 0 208 -72q39 -29 28.5 -75.5t-46 -52t-83.5 28.5t-99 34q-93 0 -150.5 -63t-57.5 -149t57.5 -151t131.5 -65q73 0 126 37t90.5 13.5t30.5 -61.5t-28 -53q-20 -15 -42 -28t-48 -23t-56 -16.5
t-84 -6.5zM603 977q-183 0 -309 -127.5t-126 -309.5t127 -309t309 -127t309 127t127 311t-127 309.5t-310 125.5zM1168 542q0 -78 -20 -150t-57 -135t-88 -114.5t-114 -88t-134 -56.5t-149 -20t-150.5 20t-135 56.5t-114.5 88t-88.5 114.5t-56.5 135t-20 150t20 149.5
t56.5 134t88.5 113.5t114.5 88t135 57t150.5 20t149 -20t134 -57t114 -88t88 -113.5t57 -134t20 -149.5z" />
    <glyph glyph-name="guillemotleft" unicode="&#xab;" horiz-adv-x="708" 
d="M662 297q32 -42 16 -80q-16 -39 -51 -48q-52 -16 -87 25l-220 265l220 264q36 43 87 26q50 -15 54 -70q2 -30 -19 -59l-136 -161zM366 297q21 -27 20 -59t-20 -49q-44 -37 -95 -15q-14 6 -25 20l-222 265l222 264q19 24 45 28q25 3 41 -2t28 -16q52 -48 6 -113l-134 -161
z" />
    <glyph glyph-name="registered" unicode="&#xae;" horiz-adv-x="1270" 
d="M686 874q226 0 226 -178q0 -104 -58 -136t-88 -40l102 -154q38 -56 -22 -96q-18 -12 -43.5 -6.5t-42.5 27.5l-142 225h-76v-188q0 -43 -25.5 -53.5t-39.5 -10.5q-26 0 -44.5 17t-18.5 47v483q0 44 25 53.5t38 9.5h209zM784 690q0 56 -98 56h-144v-113h105q13 0 28 -0.5
t41.5 0.5t47 13t20.5 44zM1100 572q0 64 -16.5 121t-63 135t-152 141t-231.5 63q-197 0 -333 -133t-136 -326q0 -194 136 -328.5t331 -134.5t305 108.5t135 199t25 154.5zM1231 574q0 -82 -21.5 -157.5t-60 -141t-93 -119.5t-120.5 -93t-141.5 -60t-157.5 -21t-158.5 21
t-143 60t-121 93t-93.5 119.5t-60.5 141t-21.5 157t21.5 156.5t60.5 140.5t94 119t121 91.5t142.5 59t158.5 21t157.5 -21t141.5 -59.5t120.5 -92t93 -119t60 -139.5t21.5 -156z" />
    <glyph glyph-name="guillemotright" unicode="&#xbb;" horiz-adv-x="708" 
d="M188 459l-135 161q-19 29 -19 51q1 60 53 77t87 -25l222 -264l-222 -265q-18 -23 -44 -27q-63 -8 -90 42q-20 46 13 88zM484 459l-136 161q-32 42 -15 80q16 38 58 52q42 13 78 -29l221 -264l-221 -265q-18 -23 -44 -27q-86 -11 -97 71q-4 31 20 59z" />
    <glyph glyph-name="onequarter" unicode="&#xbc;" horiz-adv-x="1302" 
d="M800 98q-19 0 -31.5 13t-12.5 31t8 29l316 453q15 22 33 22q29 0 44 -15t15 -35v-375h24q41 0 51.5 -24.5t10.5 -43.5t-18 -37t-44 -18h-24v-45q0 -41 -25.5 -52t-44.5 -11t-38.5 18t-19.5 45v45h-244zM387 18q-23 -35 -59 -29.5t-56 36.5t4 67l682 969q25 37 67.5 30
t51 -43t-7.5 -61zM342 540q0 -43 -27 -54t-41 -11t-39.5 10.5t-25.5 54.5v410h-45q-46 0 -57 26t-11 40q0 28 19 47t47 19h114q44 0 55 -26t11 -40v-476zM1044 221v146l-104 -146h104z" />
    <glyph glyph-name="onehalf" unicode="&#xbd;" horiz-adv-x="1292" 
d="M342 540q0 -43 -27 -54t-41 -11t-39.5 10.5t-25.5 54.5v410h-45q-46 0 -57 26t-11 40q0 28 19 47t47 19h114q44 0 55 -26t11 -40v-476zM1182 0h-292q-44 0 -56 27t-12 49t19 38q235 244 248 279t13 49q0 28 -24 50t-49 22q-40 0 -60.5 -23t-24.5 -49q-6 -39 -45.5 -64
t-71.5 22.5t-4.5 100.5t73 98.5t129.5 45.5t147 -61t63 -151t-50.5 -142.5t-70 -73.5t-39.5 -41l-43 -47h150q45 0 55.5 -25.5t10.5 -47t-19.5 -39t-46.5 -17.5zM332 18q-40 -53 -92 -18t-19 92l682 969q25 37 68 30.5t50.5 -45t-7.5 -59.5z" />
    <glyph glyph-name="threequarters" unicode="&#xbe;" horiz-adv-x="1313" 
d="M800 98q-19 0 -31.5 13t-12.5 31t8 29l316 453q15 22 33 22q29 0 44 -15t15 -35v-375h24q41 0 51.5 -24.5t10.5 -43.5t-18 -37t-44 -18h-24v-45q0 -41 -25.5 -52t-44.5 -11t-38.5 18t-19.5 45v45h-244zM1044 221v146l-104 -146h104zM436 18q-17 -24 -42.5 -29t-43.5 7
q-29 19 -34 46t10 50l682 969q25 37 68.5 30t50 -45.5t-8.5 -58.5zM442 778q58 -58 58 -139t-59 -137t-141 -56t-147 57.5t-58.5 109.5t49.5 62q42 11 58 -12t18 -36t8 -24t15 -20t22 -14.5t37.5 -5.5t47 21.5t22.5 49.5q0 29 -6 60.5t-70 31.5q-26 0 -27.5 43.5t23.5 46.5
q46 4 59 24t13 61q0 61 -63 61q-34 0 -49.5 -24t-19.5 -44t-29.5 -39.5t-60.5 2t-28 58.5q13 75 58 122t128 47t137.5 -53.5t54.5 -127.5q0 -73 -50 -125z" />
    <glyph glyph-name="multiply" unicode="&#xd7;" horiz-adv-x="794" 
d="M133 46q-31 0 -54 22t-23 54t24 56l211 211l-211 211q-24 24 -24 47q0 58 48 79q14 6 37 6t47 -24l212 -210l210 210q24 24 48 24q59 0 78 -46q20 -46 -17 -86l-211 -211l211 -211q23 -22 23 -46q0 -59 -47 -80q-13 -6 -37 -6t-48 24l-210 210l-212 -210q-24 -24 -55 -24
z" />
    <glyph glyph-name="divide" unicode="&#xf7;" horiz-adv-x="805" 
d="M700 482q33 0 51.5 -18.5t24.5 -34t6 -41t-23.5 -49t-58.5 -23.5h-592q-51 0 -66.5 32t-15.5 57t24.5 51t57.5 26h592zM472 73q-32 -32 -66 -32t-64 12.5t-44 43.5t-14 54q0 45 32 77t66 32t55 -8t44 -32t23 -69q0 -46 -32 -78zM504 646q0 -46 -32 -78t-66 -32
q-57 0 -89.5 32.5t-32.5 66.5q0 58 33 89.5t66 31.5q34 0 54.5 -9t43.5 -32t23 -69z" />
    <glyph glyph-name="kokaithai" unicode="&#xe01;" horiz-adv-x="995" 
d="M918 92q0 -40 -30 -70t-60 -30q-53 0 -81 30t-28 70v434q0 98 -70 162t-183 64q-112 0 -190 -78l50 -54v-530q0 -40 -30 -70t-60 -30q-53 0 -81 30t-28 70v467l-45 47q-83 83 66 207.5t330 124.5q182 0 311 -116t129 -294v-434z" />
    <glyph glyph-name="khokhaithai" unicode="&#xe02;" horiz-adv-x="860" 
d="M484 861.5q82 -74.5 82 -187.5t-45 -160.5t-88 -74.5t-65 -41q-37 -24 -48 -44.5t-11 -52.5q0 -31 10.5 -54t29.5 -40t44 -27t70 -10t84 37t39 90v537q0 63 39 80.5t68.5 17.5t59 -28t29.5 -70v-537q0 -129 -96.5 -220t-236.5 -91t-237.5 92t-97.5 228t80 195t110 77
t50 32t20 56t-23 66t-56 24q-61 0 -103 -57t-89.5 -49.5t-76 49.5t-1.5 83q27 42 54 69t74.5 56t147.5 29q101 0 183 -74.5z" />
    <glyph glyph-name="khokhuatthai" unicode="&#xe03;" horiz-adv-x="839" 
d="M552 672q0 -104 -46.5 -149.5t-85 -68t-60.5 -37.5q-39 -27 -54 -52t-15 -59q0 -35 10.5 -57.5t28.5 -40.5t43 -28t70 -10t83.5 38.5t38.5 88.5v537q0 63 39.5 80.5t69.5 17.5t59 -29t29 -69v-537q0 -128 -97 -218.5t-236 -90.5t-237 90.5t-98 225.5t74 193.5t104 76.5
q50 31 69 50t19 45t-15 50l-111 -91l-188 148q-45 39 -33.5 83.5t56.5 69t88 -12.5l73 -58l99 80q223 -84 223 -266z" />
    <glyph glyph-name="khokhwaithai" unicode="&#xe04;" horiz-adv-x="962" 
d="M406 557q36 0 64 -26.5t28 -56.5q0 -48 -27 -73.5t-65 -25.5h-130v-285q0 -39 -37.5 -79.5t-99 -13t-61.5 92.5v467q0 156 119.5 265.5t283.5 109.5q165 0 284 -109t119 -266v-465q0 -39 -38 -80t-99 -13t-61 93v465q0 79 -60 135t-147 56q-86 0 -144.5 -56.5
t-58.5 -134.5h130z" />
    <glyph glyph-name="khokhonthai" unicode="&#xe05;" horiz-adv-x="1007" 
d="M276 580v-23h144q36 0 64 -26t28 -56q0 -50 -27 -75t-65 -25h-144v-285q0 -39 -37.5 -79.5t-99 -13t-61.5 92.5v492q0 180 107 261t177 111l142 -120l143 118q208 -92 245.5 -202t37.5 -168v-490q0 -40 -30 -70t-60 -30q-53 0 -81 30t-28 70v490q0 84 -63 145l-166 -139
l-162 139q-64 -64 -64 -147z" />
    <glyph glyph-name="khorakhangthai" unicode="&#xe06;" horiz-adv-x="968" 
d="M477 719q0 -89 -80 -159t-98.5 -100t-18.5 -60t9 -59.5t33.5 -67.5t79.5 -70.5t103 -32.5q90 0 138.5 42.5t48.5 117.5v502q0 40 21 62t39 30t49.5 8t60.5 -30.5t29 -69.5v-502q0 -155 -109.5 -250.5t-257.5 -95.5t-244 110v-6q0 -38 -38 -78t-98 -12.5t-60 90.5v293
q0 140 92.5 215.5t98.5 86.5q19 32 9 63l-79 -72l-152 118q-41 32 -27 84.5t57 57t71 -15.5l55 -42l84 68q184 -72 184 -225z" />
    <glyph glyph-name="ngonguthai" unicode="&#xe07;" horiz-adv-x="813" 
d="M735 205q0 -89 -67.5 -153t-161.5 -64q-144 0 -211 126l-237 480q-29 58 13.5 107.5t92 33t70.5 -54.5l241 -490q9 -16 27 -16q36 0 36 31v533h-42q-62 0 -77 36t-15 56q0 38 27 65t65 27h147q59 0 75.5 -37t16.5 -55v-625z" />
    <glyph glyph-name="chochanthai" unicode="&#xe08;" horiz-adv-x="893" 
d="M526 -8q-49 0 -72 61l-149 401q-23 59 24 102.5t95 24t64 -60.5l59 -162l57 148q12 34 12 67q0 69 -56.5 122t-137.5 53q-140 0 -188 -168q-19 -61 -72 -69t-76.5 11.5t-47 60t51.5 161.5t167.5 155.5t155.5 34.5t114 -13t116 -48t118 -119t53 -168t-24 -142l-153 -388
q-11 -28 -36.5 -46t-74.5 -18z" />
    <glyph glyph-name="chochingthai" unicode="&#xe09;" horiz-adv-x="932" 
d="M90 330v45q-59 0 -74.5 35.5t-15.5 64t27.5 54.5t62.5 26h106q59 0 74.5 -35.5t15.5 -54.5v-139q0 -79 70.5 -130t161 -15.5t114.5 86.5t24 95v208q0 72 -57 125t-145 53q-87 0 -126.5 -39t-48.5 -61t-23 -35t-31 -19t-36 -4.5t-46 15t-40 48.5t3 74q83 145 186.5 176
t163.5 31t109 -13t114.5 -48t119 -119t53.5 -184v-482q0 -38 -37.5 -77t-85.5 -19t-60.5 45.5t-12.5 42.5q-88 -92 -222 -92q-138 6 -241 101t-103 241z" />
    <glyph glyph-name="chochangthai" unicode="&#xe0a;" horiz-adv-x="878" 
d="M592 568q0 20 -12 48q-16 -96 -119.5 -159t-123 -90.5t-19.5 -59.5q0 -33 10.5 -56t29 -40t43.5 -27t67.5 -10t83 37t40.5 90v267zM788 568v-267q0 -129 -96 -221t-236 -92t-237.5 92t-97.5 221q0 81 20.5 120.5t39.5 60.5t43 39.5t72.5 48t70.5 47.5t22 57
q0 40 -25.5 63t-53.5 23q-42 0 -64 -18t-38 -46t-39 -43.5t-54 -11t-49 15.5q-36 23 -44.5 63t14.5 73t50.5 60.5t60 47t69.5 30.5t79 11q83 0 153 -41.5t105 -108.5l182 189q44 44 104.5 20.5t60.5 -75.5t-28 -80l-130 -136q46 -60 46 -142z" />
    <glyph glyph-name="sosothai" unicode="&#xe0b;" horiz-adv-x="874" 
d="M351.5 210q39.5 -38 82.5 -38q74 0 113 37.5t39 91.5v264q0 23 -12 51q-20 -96 -121.5 -159t-121 -91t-19.5 -73t39.5 -83zM725 981q28 28 67.5 28t61.5 -21q36 -34 34.5 -74.5t-26.5 -67.5l-124 -136q46 -69 46 -142v-269q0 -128 -97.5 -219.5t-237.5 -91.5t-237.5 91.5
t-97.5 220.5q0 130 61.5 185.5t104 81t73 49t30.5 57.5t-11 50l-114 -95l-202 152q-49 37 -32 95.5t65 64t79 -15.5l86 -62l100 84q143 -53 196 -152z" />
    <glyph glyph-name="chochoethai" unicode="&#xe0c;" horiz-adv-x="1569" 
d="M760.5 19.5q-29.5 29.5 -29.5 70.5v436q0 100 -73.5 163t-185.5 63t-196 -80l50 -50v-438h51q59 0 75.5 -36t16.5 -56q0 -36 -26 -64t-66 -28h-151q-39 0 -69 28t-30 71v468l-51 55q-66 71 27.5 151.5t173 121.5t168.5 41t150 -14t139.5 -52.5t138 -132t59.5 -207.5v-118
q0 -107 65.5 -172.5t154.5 -65.5t112.5 58.5t23.5 99.5v498q0 68 39.5 85t84 17t62 -40t17.5 -62v-498q0 -151 -99.5 -247.5t-229.5 -96.5t-230 102q0 -41 -29.5 -70.5t-71 -29.5t-71 29.5z" />
    <glyph glyph-name="yoyingthai" unicode="&#xe0d;" horiz-adv-x="1558" 
d="M733 332v196q0 99 -71 160.5t-187 61.5t-197 -76l52 -50v-440h51q59 0 75.5 -36t16.5 -56q0 -36 -26 -64t-66 -28h-155q-39 0 -69 28t-30 71v468l-51 55q-66 71 27.5 151.5t173 121.5t168.5 41t150 -14t139.5 -52t139 -131.5t60.5 -208.5v-198q0 -68 49.5 -114t145.5 -46
t123.5 63t27.5 97v500q0 66 39 83t60 17q44 0 72.5 -30t28.5 -70v-834q0 -147 -111 -250.5t-271 -103.5q-203 0 -330 182q-22 31 -15.5 71t32.5 58q43 30 84 21t69 -51q65 -97 150 -97q86 0 140 48.5t54 119.5v43q-64 -53 -174 -53q-158 0 -266.5 102.5t-108.5 243.5z" />
    <glyph glyph-name="dochadathai" unicode="&#xe0e;" horiz-adv-x="1009" 
d="M688 -391q-147 105 -257.5 105t-240.5 -78q-51 -32 -100.5 1t-38 80t46.5 69q157 102 343 102q107 0 223 -52l69 66v624q0 153 -98.5 188.5t-140.5 35.5q-120 0 -203 -78l49 -52v-521q0 -64 -39 -81.5t-60 -17.5h-118q-60 0 -76.5 36t-16.5 56q0 38 26.5 66t66.5 28h19
v380l-52 55q-65 70 74.5 191.5t287.5 121.5q296 0 388 -144t92 -262v-694z" />
    <glyph glyph-name="topatakthai" unicode="&#xe0f;" horiz-adv-x="1009" 
d="M735 526q0 99 -71 160.5t-183 61.5t-190 -76l49 -52v-521q0 -64 -39 -81.5t-60 -17.5h-118q-60 0 -76.5 36t-16.5 56q0 38 26.5 66t66.5 28h19v380l-52 55q-65 70 74.5 191.5t287.5 121.5q296 0 388 -144t92 -262v-690l-266 -236l-160 144l-160 -144l-230 206
q-40 37 -26.5 80t53.5 62.5t87 -14.5l122 -106l154 137l154 -137l75 64v632z" />
    <glyph glyph-name="thothanthai" unicode="&#xe10;" horiz-adv-x="893" 
d="M526 -8q-49 0 -72 61l-149 401q-23 59 24 102t95 24t64 -60l59 -162l57 148q12 34 12 67q0 69 -56.5 122t-137.5 53q-106 0 -141 -62t-44 -94q-15 -52 -63.5 -77.5t-97.5 15.5t-33 103q55 205 179 253t202 48t152 -29l22 -10l72 78q42 48 104.5 27.5t65.5 -75.5t-23 -83
l-67 -74q65 -83 65 -198q-1 -68 -25 -126l-153 -388q-11 -28 -36.5 -46t-74.5 -18zM668 -121q0 60 36 76.5t56 16.5q37 0 64.5 -26.5t27.5 -66.5v-119l-182 -160l-164 150l-166 -150l-230 202q-39 36 -22.5 89t61.5 55.5t72 -18.5l121 -104l166 146l160 -140v49z" />
    <glyph glyph-name="thonangmonthothai" unicode="&#xe11;" horiz-adv-x="975" 
d="M414 722q0 -55 -25 -103.5t-42 -77.5t-32 -61t-12 -84l338 534q124 -14 196.5 -91.5t72.5 -189.5v-561q0 -41 -22 -62t-40 -28.5t-50 -7.5t-60 29.5t-28 68.5v570q0 28 -8 44l-418 -665q-27 -42 -71 -42t-71.5 26t-27.5 65v286q0 112 62 226q13 26 25.5 48t27.5 51.5
t9 52.5l-88 -84l-142 137q-34 34 -17.5 80.5t57.5 48t62 -19.5l40 -38l88 68q176 -72 176 -220z" />
    <glyph glyph-name="thophuthaothai" unicode="&#xe12;" horiz-adv-x="1591" 
d="M252 448q0 -124 54.5 -200t141.5 -76q26 0 51 18q43 31 91.5 28.5t68.5 -61.5t-28 -101q-86 -70 -168 -70t-137.5 17t-120 62.5t-109.5 150.5t-45 217q0 394 349 511l130 -102l134 102q290 -102 290 -348v-190q0 -105 66.5 -169.5t147.5 -64.5q96 -3 119 57.5t23 100.5
v500q0 41 21 63.5t40 30.5t40 8t62 -17.5t41 -84.5v-500q0 -153 -95.5 -246.5t-230.5 -93.5q-134 0 -234 100q0 -40 -21 -62t-39.5 -30t-50.5 -8t-60.5 30t-28.5 70v502q0 83 -68 135l-156 -115l-155 117q-123 -89 -123 -281z" />
    <glyph glyph-name="nonenthai" unicode="&#xe13;" horiz-adv-x="1558" 
d="M932 330q0 -75 54.5 -131t146.5 -20.5t119.5 93.5t27.5 109v451q0 66 39 83t60 17q44 0 72.5 -30t28.5 -70v-742q0 -40 -38 -80t-100 -12.5t-62 92.5q-93 -110 -231 -103q-131 6 -223.5 100.5t-92.5 242.5v196q0 154 -101.5 189t-159.5 35q-112 0 -194 -78l48 -50v-438
h53q59 0 75.5 -36t16.5 -56q0 -36 -26 -64t-66 -28h-153q-39 0 -69 28t-30 71v467l-51 56q-36 39 -13.5 87.5t127.5 136.5t254 88q223 0 355.5 -113.5t132.5 -291.5v-199z" />
    <glyph glyph-name="dodekthai" unicode="&#xe14;" horiz-adv-x="1011" 
d="M51 442q0 242 140.5 367t315.5 125t301 -98t126 -264v-482q0 -41 -29 -70.5t-61 -29.5q-52 0 -81.5 29t-29.5 71v478q0 88 -95 153.5t-209.5 16t-145.5 -133.5t-31 -154q0 -129 54.5 -202.5t141.5 -73.5q37 0 55 12q17 12 35 16t35 1t32.5 -12t25.5 -25q21 -33 13 -69.5
t-38 -57.5q-65 -49 -158 -49q-191 0 -294 129.5t-103 322.5z" />
    <glyph glyph-name="totaothai" unicode="&#xe15;" horiz-adv-x="1018" 
d="M250 446q0 -122 55 -196t137 -74q34 0 57 16t41.5 20t36 1t40.5 -16.5t34 -66.5t-58.5 -95.5t-142.5 -42.5q-72 0 -125.5 17t-117.5 61t-109 148t-45 214q0 394 340 510l131 -100l130 100q286 -106 286 -348v-506q0 -63 -40 -80.5t-60 -17.5q-40 0 -69 27.5t-29 70.5v502
q0 84 -64 133l-156 -117l-156 121q-116 -87 -116 -281z" />
    <glyph glyph-name="thothungthai" unicode="&#xe16;" horiz-adv-x="995" 
d="M918 90q0 -40 -30 -70t-60 -30q-53 0 -81 30t-28 70l2 436q0 99 -72 162.5t-186 63.5q-74 0 -121.5 -30t-65.5 -48l50 -52v-438h49q59 0 75.5 -36t16.5 -56q0 -36 -26 -64t-66 -28h-149q-39 0 -69 28t-30 71v458l-45 47q-83 83 66 207.5t330 124.5q182 0 311 -116
t129 -294v-436z" />
    <glyph glyph-name="thothahanthai" unicode="&#xe17;" horiz-adv-x="962" 
d="M276 836q116 102 252 102t246 -91t110 -255v-504q0 -39 -37.5 -78.5t-99 -13t-61.5 91.5v504q0 115 -69 138.5t-110 23.5q-88 0 -159.5 -69.5t-71.5 -158.5v-438q0 -39 -37.5 -78t-99 -13.5t-61.5 91.5v748q0 41 28.5 69.5t59.5 28.5q54 0 82 -29.5t28 -68.5z" />
    <glyph glyph-name="thothongthai" unicode="&#xe18;" horiz-adv-x="932" 
d="M450 782q-188 0 -188 -67q0 -40 85 -59t105 -23.5t45 -10.5t191 -52t166 -252q0 -152 -115 -243t-273 -91t-273 91t-115 243v80q0 38 21 60t39 30t48 8t59 -29t29 -69v-78q0 -105 74 -127.5t118 -22.5t79.5 11t60 30t38.5 46t14 60t-25.5 66t-88 52.5t-105.5 30.5
t-89.5 22.5t-114 33.5t-120.5 69.5t-53 105.5q0 59 17 95t46.5 63t69 46t82.5 31t89 17t88 5q260 0 351 -122q40 -55 16 -100.5t-78 -51t-93 34.5t-103.5 53.5t-96.5 13.5z" />
    <glyph glyph-name="nonuthai" unicode="&#xe19;" horiz-adv-x="962" 
d="M884 90q0 -40 -38.5 -80t-99 -12.5t-60.5 92.5v14q-96 -120 -243 -120t-256 95t-109 251v502q0 65 39 82.5t59 17.5q42 0 71 -30t29 -70v-502q0 -75 49 -117.5t129 -42.5t156 76t76 174v412q0 65 39 82.5t59 17.5q43 0 71.5 -30t28.5 -70v-742z" />
    <glyph glyph-name="bobaimaithai" unicode="&#xe1a;" horiz-adv-x="962" 
d="M686 832q0 65 39 82.5t59 17.5q43 0 71.5 -30t28.5 -70v-470q0 -158 -118 -266t-285 -108t-285 108.5t-118 265.5v470q0 65 39 82.5t59 17.5q42 0 71 -30t29 -70v-470q0 -75 58.5 -131.5t144.5 -56.5t146.5 56t60.5 132v470z" />
    <glyph glyph-name="poplathai" unicode="&#xe1b;" horiz-adv-x="962" 
d="M686 1243q0 41 21 63t39 30t38 8q43 0 71.5 -30.5t28.5 -70.5v-881q0 -158 -118 -266t-285 -108t-285 108.5t-118 265.5v470q0 65 39 82.5t59 17.5q42 0 71 -30t29 -70v-470q0 -75 58.5 -131.5t144.5 -56.5t146.5 56t60.5 132v881z" />
    <glyph glyph-name="phophungthai" unicode="&#xe1c;" horiz-adv-x="1079" 
d="M276 557v-305q0 -50 32.5 -63t58.5 -13t49.5 22t23.5 54v258q0 40 28.5 70t59.5 30q52 0 81.5 -29.5t29.5 -70.5v-258q0 -50 32.5 -63t58 -13t49.5 22.5t24 53.5v580q0 66 38.5 83t59.5 17q40 0 70.5 -29t30.5 -71v-580q0 -109 -83 -184.5t-193 -75.5t-188 61
q-74 -61 -184 -61t-193 75t-83 185v305q0 159 129 267q91 79 252 102q58 6 89.5 -46.5t0.5 -92t-72 -44.5q-88 -11 -144.5 -61.5t-56.5 -124.5z" />
    <glyph glyph-name="fofathai" unicode="&#xe1d;" horiz-adv-x="1079" 
d="M276 557v-305q0 -50 32.5 -63t58.5 -13t49.5 22t23.5 54v258q0 40 28.5 70t59.5 30q52 0 81.5 -29.5t29.5 -70.5v-258q0 -50 32.5 -63t58 -13t49.5 22.5t24 53.5v991q0 41 20.5 63t38.5 30t39 8q41 0 71 -30t30 -71v-991q0 -109 -83 -184.5t-193 -75.5t-188 61
q-74 -61 -184 -61t-193 75t-83 185v305q0 159 129 267q91 79 252 102q58 6 89.5 -46.5t0.5 -92t-72 -44.5q-88 -11 -144.5 -61.5t-56.5 -124.5z" />
    <glyph glyph-name="phophanthai" unicode="&#xe1e;" horiz-adv-x="1116" 
d="M78 832q0 65 39 82.5t59 17.5q42 0 71 -30t29 -70v-572q0 -56 36 -70t56 -14q39 0 65 24.5t26 59.5v572q0 66 38.5 83t59.5 17q40 0 70.5 -29t30.5 -71v-572q0 -57 36 -70.5t56 -13.5q38 0 65 25t27 59v574q0 64 39 81t59 17q40 0 69 -28t29 -70v-574q0 -113 -84 -191.5
t-199 -78.5t-196 68q-81 -68 -196 -68t-200 78.5t-85 191.5v572z" />
    <glyph glyph-name="fofanthai" unicode="&#xe1f;" horiz-adv-x="1116" 
d="M78 832q0 65 39 82.5t59 17.5q42 0 71 -30t29 -70v-572q0 -56 36 -70t56 -14q39 0 65 24.5t26 59.5v572q0 66 38.5 83t59.5 17q40 0 70.5 -29t30.5 -71v-572q0 -57 36 -70.5t56 -13.5q38 0 65 25t27 59v985q0 65 39 82t59 17q40 0 69 -29t29 -70v-985q0 -113 -84 -191.5
t-199 -78.5t-196 68q-81 -68 -196 -68t-200 78.5t-85 191.5v572z" />
    <glyph glyph-name="phosamphaothai" unicode="&#xe20;" horiz-adv-x="1009" 
d="M932 90q0 -39 -21.5 -61.5t-40 -30.5t-38.5 -8q-41 0 -69 30t-28 70v436q0 99 -72 162.5t-180 63.5t-192 -78l49 -52v-523q0 -64 -39 -81.5t-60 -17.5h-110q-59 0 -75.5 36t-16.5 56q0 37 26 64.5t66 27.5h11v382l-52 55q-65 70 74.5 191.5t287.5 121.5q296 0 388 -144
t92 -262v-438z" />
    <glyph glyph-name="momathai" unicode="&#xe21;" horiz-adv-x="962" 
d="M78 832q0 41 29.5 70.5t60.5 29.5q51 0 79.5 -28.5t28.5 -71.5v-412q0 -92 76 -171t160 -79q119 0 146.5 60t27.5 100v502q0 41 21.5 62.5t40 29.5t38.5 8q41 0 69.5 -28.5t28.5 -71.5v-502q0 -155 -108 -250.5t-254 -95.5q-105 0 -163.5 45t-82.5 75v-14q0 -66 -39 -83
t-59 -17q-42 0 -71 29.5t-29 70.5v742z" />
    <glyph glyph-name="yoyakthai" unicode="&#xe22;" horiz-adv-x="927" 
d="M268 299q54 -127 193 -127q79 0 138 57.5t59 136.5v470q0 39 27 67.5t58 28.5q51 0 78 -28.5t27 -67.5v-470q0 -157 -115 -267.5t-277 -110.5q-211 0 -296.5 133t-93.5 243l116 118q-106 97 -106 203t73.5 177.5t164.5 71.5t155.5 -47.5t53 -97.5t-53.5 -73.5t-102 16.5
q-24 16 -38 16q-28 0 -46.5 -17t-18.5 -41t25 -49l161 -162z" />
    <glyph glyph-name="roruathai" unicode="&#xe23;" horiz-adv-x="878" 
d="M807 269q0 -53 -21 -110t-110.5 -113t-253.5 -56t-248.5 61.5t-91 115.5t35.5 82.5t83 13t59 -34.5q27 -29 79 -44.5t95 -15.5q77 0 122.5 29t45.5 60q0 52 -41.5 77t-137.5 51t-163 51.5t-117.5 84t-50.5 165.5q0 175 132.5 215.5t195.5 40.5q236 0 332 -123
q40 -53 18.5 -100t-75.5 -52.5t-97 40.5q-43 47 -84.5 54t-72.5 7q-62 0 -105 -26t-43 -54q0 -48 40 -72t139 -51t139.5 -42.5t76.5 -36t62 -51t41.5 -72t15.5 -94.5z" />
    <glyph glyph-name="ruthai" unicode="&#xe24;" horiz-adv-x="995" 
d="M918 -260q0 -40 -30 -70t-60 -30q-52 0 -79.5 30.5t-27.5 69.5v786q0 99 -72 162.5t-186 63.5q-74 0 -121.5 -30t-65.5 -48l50 -52v-438h49q59 0 75.5 -36t16.5 -56q0 -36 -26 -64t-66 -28h-149q-39 0 -69 28t-30 71v458l-45 47q-83 83 66 207.5t330 124.5
q182 0 311 -116t129 -294v-786z" />
    <glyph glyph-name="lolingthai" unicode="&#xe25;" horiz-adv-x="917" 
d="M652 592q0 111 -81 133.5t-125 22.5q-80 0 -121 -31.5t-55 -66.5q-13 -35 -41 -66.5t-81 -13.5q-56 16 -65 69t65.5 173t299.5 120q150 0 271 -92.5t121 -259.5v-494q0 -60 -38 -78t-68 -18t-57.5 29t-27.5 67v172q0 78 -55.5 124t-141.5 46q-124 0 -156 -64t-32 -92
q0 -74 58 -126q36 -32 36 -85t-57 -76.5t-95 12.5q-130 121 -130 252q0 167 112 266t248 99q137 0 216 -57v35z" />
    <glyph glyph-name="luthai" unicode="&#xe26;" horiz-adv-x="1009" 
d="M932 -260q0 -39 -21.5 -61.5t-40 -30.5t-38.5 -8q-41 0 -69 30t-28 70v786q0 99 -72 162.5t-180 63.5t-192 -78l49 -52v-523q0 -64 -39 -81.5t-60 -17.5h-110q-59 0 -75.5 36t-16.5 56q0 37 26 64.5t66 27.5h11v382l-52 55q-65 70 74.5 191.5t287.5 121.5q296 0 388 -144
t92 -262v-788z" />
    <glyph glyph-name="wowaenthai" unicode="&#xe27;" horiz-adv-x="844" 
d="M399 173q37 0 78 21t71 58.5t47 90.5t17 118q0 129 -64.5 207t-147.5 78q-109 0 -198 -78q-44 -39 -89.5 -19t-62 67t31.5 90q63 57 139 92.5t147 35.5t124.5 -16t100.5 -45t86 -71t67 -94.5t43.5 -115t15.5 -131.5t-15.5 -131t-56 -142t-136 -141t-194.5 -61
q-186 0 -323 128q-27 23 -31.5 73.5t53.5 78.5t101 -15q78 -78 196 -78z" />
    <glyph glyph-name="sosalathai" unicode="&#xe28;" horiz-adv-x="962" 
d="M884 557v-465q0 -39 -38 -80t-99 -13t-61 93v465q0 79 -60 135t-147 56q-86 0 -144.5 -56.5t-58.5 -134.5h130q36 0 64 -26.5t28 -56.5q0 -48 -27 -73.5t-65 -25.5h-130v-285q0 -39 -37.5 -79.5t-99 -13t-61.5 92.5v467q0 156 119.5 265.5t284.5 109.5q91 0 159 -33
l67 69q42 49 91.5 32.5t72.5 -64t-20 -94.5l-51 -56q83 -95 83 -229z" />
    <glyph glyph-name="sorusithai" unicode="&#xe29;" horiz-adv-x="983" 
d="M908 624q59 0 75.5 -36t16.5 -65t-27.5 -55t-64.5 -26h-3v-51q0 -171 -120.5 -287t-294 -116t-293 116.5t-119.5 286.5v441q0 65 39 82.5t59 17.5q42 0 71 -30t29 -70v-443q0 -93 60 -153t155 -60t155 61.5t60 153.5v51h-122q-70 0 -118 46t-48 114v26q0 61 36 77t56 16
q36 0 64 -26t28 -67v-4h104v208q0 40 28.5 70t59.5 30q52 0 81.5 -29.5t29.5 -70.5v-208h3z" />
    <glyph glyph-name="sosuathai" unicode="&#xe2a;" horiz-adv-x="917" 
d="M840 580v-494q0 -60 -38 -78t-68 -18t-57.5 29t-27.5 67v172q0 78 -55.5 124t-141.5 46q-126 0 -157.5 -64t-31.5 -92q0 -73 60 -126q35 -31 35 -84.5t-58 -77.5t-102 20q-122 110 -122 261t112 250t248 99q137 0 216 -57v35q0 111 -81 133.5t-125 22.5q-80 0 -121 -31.5
t-55 -66.5q-13 -35 -41 -66.5t-81 -13.5q-56 16 -65 69t65.5 173t299.5 120q108 0 187 -41l73 77q42 49 91.5 32.5t72.5 -64t-20 -94.5l-68 -76q56 -84 56 -186z" />
    <glyph glyph-name="hohipthai" unicode="&#xe2b;" horiz-adv-x="950" 
d="M872 448v-362q0 -63 -38 -79.5t-67.5 -16.5t-57 27.5t-27.5 68.5v368q0 44 -32.5 76.5t-67.5 32.5t-66.5 -13.5t-78 -42.5t-108 -77.5t-61.5 -52.5v-291q0 -63 -38 -79.5t-67.5 -16.5t-57 27.5t-27.5 68.5v750q0 39 20 60t37 28.5t47 7.5t58 -28t28 -68v-236l440 310
q76 48 128 -17q23 -26 18.5 -66.5t-35.5 -60.5l-94 -68q147 -86 147 -250z" />
    <glyph glyph-name="lochulathai" unicode="&#xe2c;" horiz-adv-x="1116" 
d="M1038 924q0 -79 -42 -132q42 -62 42 -140v-392q0 -113 -84 -191.5t-199 -78.5t-196 68q-81 -68 -196 -68t-200 78.5t-85 191.5v572q0 65 39 82.5t59 17.5q42 0 71 -30t29 -70v-572q0 -56 36 -70t56 -14q39 0 65 24.5t26 59.5v262q0 66 38.5 83t59.5 17q40 0 70.5 -28.5
t30.5 -71.5v-262q0 -57 36 -70.5t56 -13.5q38 0 65 25t27 59v394q0 77 -64 77h-47q-57 0 -70.5 33.5t-13.5 59.5t23.5 51.5t60.5 25.5h57q10 0 34 -1t24 19q0 21 7 38t20 30.5t31 21t38 7.5q38 0 67 -27.5t29 -64.5z" />
    <glyph glyph-name="oangthai" unicode="&#xe2d;" horiz-adv-x="1028" 
d="M86 490.5q27 25.5 63 25.5h322q57 0 73.5 -36t16.5 -62.5t-26 -54t-64 -27.5h-197q37 -118 117.5 -143t130.5 -25q107 0 181.5 84t74.5 214t-73.5 212t-188.5 82q-150 0 -236 -146q-28 -53 -80 -47.5t-70 28.5t-26 49.5t15 67.5q54 98 156.5 165t240.5 67
q206 0 329 -141.5t123 -339.5t-126 -338.5t-323 -140.5q-198 0 -305 106t-131 190t-24 134q0 51 27 76.5z" />
    <glyph glyph-name="honokhukthai" unicode="&#xe2e;" horiz-adv-x="1028" 
d="M870 770q98 -133 98 -319t-126 -326.5t-323 -140.5q-198 0 -329 129.5t-131 312.5q0 59 35.5 74.5t54.5 15.5h322q57 0 73.5 -36t16.5 -62.5t-26 -54t-64 -27.5h-197q23 -75 90 -121.5t137 -46.5q128 0 202.5 84t74.5 214t-73.5 212t-188.5 82t-166.5 -56t-65.5 -81
t-45 -49.5t-87 6.5q-53 31 -50 82t105 166.5t295 115.5q122 0 217 -47l84 88q42 48 104 27.5t65 -74t-24 -82.5z" />
    <glyph glyph-name="paiyannoithai" unicode="&#xe2f;" horiz-adv-x="872" 
d="M443 514q-232 0 -299.5 117t-73.5 163q-10 68 21.5 110.5t94.5 26t72 -78.5q19 -107 75.5 -130.5t90.5 -23.5t87 22t75 110q16 53 37 78.5t54 25.5q80 0 97.5 -41t17.5 -63v-740q0 -40 -38.5 -80t-98 -12.5t-59.5 92.5v484q-68 -60 -153 -60z" />
    <glyph glyph-name="saraathai" unicode="&#xe30;" horiz-adv-x="502" 
d="M238 82q-74 0 -124 48.5t-50 119.5v22q0 66 37 81t66.5 15t58 -27t28.5 -69v-10h98q59 0 74.5 -36t15.5 -54t-15.5 -54t-74.5 -36h-114zM238 549q-73 0 -123.5 48.5t-50.5 119.5v23q0 61 37 78.5t65.5 17.5t58 -28t29.5 -68v-11h98q59 0 74.5 -35.5t15.5 -54.5
t-15.5 -54.5t-74.5 -35.5h-114z" />
    <glyph glyph-name="maihanakatthai" unicode="&#xe31;" 
d="M-76 1218q56 0 71 -34.5t15 -62.5t-26 -52.5t-60 -24.5h-414q-119 0 -143.5 67t-24.5 103v44q0 55 34.5 70.5t52 15.5t51.5 -15t34 -71q0 -21 5 -30.5t23 -9.5h382z" />
    <glyph glyph-name="saraaathai" unicode="&#xe32;" horiz-adv-x="760" 
d="M340 934q68 0 137 -28t137 -98t68 -218v-502q0 -40 -21.5 -61.5t-40 -29t-38.5 -7.5q-42 0 -70 28t-28 70v488q0 178 -172 178q-75 0 -144 -56q-43 -40 -91.5 -20t-64.5 71t22 83q37 32 67.5 50t63.5 29.5t70 17t105 5.5z" />
    <glyph glyph-name="saraamthai" unicode="&#xe33;" horiz-adv-x="760" 
d="M340 934q68 0 137 -28t137 -98t68 -218v-502q0 -40 -21.5 -61.5t-40 -29t-38.5 -7.5q-42 0 -70 28t-28 70v488q0 178 -172 178q-75 0 -144 -56q-43 -40 -91.5 -20t-64.5 71t22 83q37 32 67.5 50t63.5 29.5t70 17t105 5.5zM-119 1214q0 18 -4 28t-11 18t-16.5 12t-21.5 4
t-22 -4t-17.5 -12t-12 -18t-4.5 -27t16.5 -32t39.5 -15t38 14t15 32zM10 1222.5q0 -37.5 -14 -71t-39 -58t-58 -39t-71 -14.5t-71 14.5t-58 39t-39 58t-14 71t14 70.5t39 58t58 39.5t71 14.5t71 -14.5t58 -39.5t39 -58t14 -70.5z" />
    <glyph glyph-name="saraithai" unicode="&#xe34;" 
d="M-154 1218q58 0 72 -35t14 -53q0 -34 -24.5 -60t-61.5 -26h-642q-57 0 -71.5 34t-14.5 52q0 37 24 62.5t62 25.5h642z" />
    <glyph glyph-name="saraiithai" unicode="&#xe35;" 
d="M-796 1044q-57 0 -71.5 34t-14.5 52q0 37 24 62.5t62 25.5h544v46q0 57 35 72.5t53 15.5q36 0 61 -26.5t25 -61.5v-134q0 -33 -25 -59.5t-61 -26.5h-632z" />
    <glyph glyph-name="sarauethai" unicode="&#xe36;" 
d="M-164 1192q0 10 -4 19t-11 15.5t-15.5 10.5t-18.5 4t-18.5 -4t-15.5 -10.5t-11 -15.5t-4 -19t4 -19t11 -15.5t15.5 -10.5t18.5 -4t18.5 4t15.5 10.5t11 15.5t4 19zM-108.5 1299q44.5 -43 44.5 -90q0 -77 -44 -121t-103 -44h-585q-57 0 -71.5 34t-14.5 52q0 37 24 62.5
t62 25.5h438q19 85 68.5 104.5t93.5 19.5q43 0 87.5 -43z" />
    <glyph glyph-name="saraueethai" unicode="&#xe37;" 
d="M-796 1044q-57 0 -71.5 34t-14.5 52q0 37 24 62.5t62 25.5h304v42q0 51 33 66.5t49 15.5q33 0 58.5 -24t25.5 -58v-42h82v40q0 53 34 68.5t51 15.5t49 -15.5t32 -68.5v-128q0 -33 -25 -59.5t-61 -26.5h-632z" />
    <glyph glyph-name="sarauthai" unicode="&#xe38;" 
d="M-78 -389q0 -60 -36.5 -77.5t-65.5 -17.5t-56.5 29t-27.5 66v111h-43q-60 0 -77.5 37t-17.5 57q0 37 28.5 65.5t66.5 28.5h135q38 0 66 -28t28 -66v-205z" />
    <glyph glyph-name="sarauuthai" unicode="&#xe39;" 
d="M-348 -307q0 -19 13 -29t30 -10t30 10t13 29v133q0 38 20 58t36.5 27t45 7t55.5 -27t27 -65v-129q0 -92 -66 -149.5t-160 -57.5t-160 47t-66 123v62h-38q-59 0 -76.5 37t-17.5 57q0 35 27 63.5t67 28.5h126q38 0 66 -28t28 -66v-121z" />
    <glyph glyph-name="phinthuthai" unicode="&#xe3a;" 
d="M-58 -166q0 -24 -9 -46t-25 -38t-37 -25t-45 -9t-46 9t-38 25t-25.5 38t-9.5 46t9.5 46t25.5 38t37 25.5t45 9.5t46 -9.5t38 -25.5t25 -38t9 -46z" />
    <glyph glyph-name="PUCR2005" unicode="&#xe3e;" 
 />
    <glyph glyph-name="bahtthai" unicode="&#xe3f;" horiz-adv-x="870" 
d="M823 326q0 -147 -93.5 -230t-233.5 -96v-96q0 -32 -17 -50t-32 -24t-40.5 -6t-47 23t-21.5 57v96h-162q-43 0 -71.5 30t-28.5 72v877q0 68 39 85.5t61 17.5h162v88q0 52 30 66t55.5 14t49 -23.5t23.5 -56.5v-97q239 -53 239 -305q1 -106 -61 -180q149 -86 149 -262z
M338 471h-90v-301h90v301zM611.5 428q-39.5 32 -115.5 41v-295q78 13 116.5 46.5t38.5 104.5t-39.5 103zM338 914h-90v-273h90v273zM496 893v-235q67 29 67 118q0 88 -67 117z" />
    <glyph glyph-name="saraethai" unicode="&#xe40;" horiz-adv-x="415" 
d="M307 90q0 -41 -21.5 -62.5t-39.5 -29.5t-39 -8q-42 0 -70.5 30t-28.5 70v742q0 40 28.5 70t59.5 30q52 0 81.5 -29.5t29.5 -70.5v-742z" />
    <glyph glyph-name="saraaethai" unicode="&#xe41;" horiz-adv-x="770" 
d="M662 90q0 -64 -40 -82t-60 -18q-42 0 -70.5 29.5t-28.5 70.5v742q0 66 38.5 83t59.5 17q40 0 70.5 -29t30.5 -71v-742zM307 90q0 -41 -21.5 -62.5t-39.5 -29.5t-39 -8q-42 0 -70.5 30t-28.5 70v742q0 40 28.5 70t59.5 30q52 0 81.5 -29.5t29.5 -70.5v-742z" />
    <glyph glyph-name="saraothai" unicode="&#xe42;" horiz-adv-x="377" 
d="M286 958v-868q0 -41 -29.5 -70.5t-61.5 -29.5q-51 0 -80 29t-29 71v870q0 23 -28 42t-47 32t-36 31t-28 42.5t-11 60.5t11 62t46.5 63.5t152.5 37.5h202q37 0 57.5 -19.5t27.5 -36.5t7 -46t-27 -54.5t-65 -25.5h-190q128 -69 128 -191z" />
    <glyph glyph-name="saraaimaimuanthai" unicode="&#xe43;" horiz-adv-x="377" 
d="M228 1096q0 66 -68 66q-40 0 -53 -25t-16 -41q-7 -37 -54 -61t-93.5 15.5t-34.5 91.5q20 89 91.5 145.5t142.5 56.5t143 -30.5t102 -98t30 -113.5q0 -76 -31 -123.5t-101 -112.5v-778q0 -64 -40 -81t-60 -17q-39 0 -68.5 28t-29.5 70v836q8 8 22 20.5t66 61t52 90.5z" />
    <glyph glyph-name="saraaimaimalaithai" unicode="&#xe44;" horiz-adv-x="377" 
d="M228 1331q110 0 158 -51t48 -97q0 -45 -11 -68.5t-27 -42t-35.5 -33t-47 -36t-27.5 -43.5v-872q0 -64 -40 -81t-60 -17q-39 0 -68.5 28t-29.5 70v870q0 68 34 112t93 79h-191q-60 0 -76 35.5t-16 64.5t28 55.5t64 26.5h204z" />
    <glyph glyph-name="lakkhangyaothai" unicode="&#xe45;" horiz-adv-x="760" 
d="M340 934q68 0 137 -28t137 -98t68 -218v-854q0 -41 -21.5 -62.5t-40 -28.5t-38.5 -7q-43 0 -70.5 27.5t-27.5 70.5v840q0 178 -172 178q-75 0 -144 -56q-43 -40 -91.5 -20t-64.5 71t22 83q37 32 67.5 50t63.5 29.5t70 17t105 5.5z" />
    <glyph glyph-name="maiyamokthai" unicode="&#xe46;" horiz-adv-x="973" 
d="M267 555q0 -55 44 -113t11.5 -113.5t-85 -48.5t-73.5 34q-92 117 -92 237q0 130 81 229.5t226 153.5l105 -100l104 100q222 -81 264.5 -198t42.5 -179v-821q0 -43 -21.5 -63.5t-39.5 -27.5t-38 -7q-43 0 -70.5 29t-27.5 69v821q0 91 -74 149l-140 -132l-142 132
q-75 -63 -75 -151z" />
    <glyph glyph-name="maitaikhuthai" unicode="&#xe47;" 
d="M-600 1030q-109 0 -172.5 67t-63.5 177t61.5 183t164.5 73h462q58 0 71 -33t13 -60t-24 -51t-60 -24h-462q-38 0 -45 -36t-7 -52q0 -29 13.5 -53.5t43.5 -24.5t37 31q15 60 85 60t81 -57q8 -36 43 -36t43 37q13 54 69.5 61t78.5 -32t18 -58q-5 -20 -11.5 -46.5
t-40.5 -61.5q-62 -64 -140 -64t-140 47q-59 -47 -118 -47z" />
    <glyph glyph-name="maiekthai" unicode="&#xe48;" 
d="M-252 1671q0 37 19 56t35 25.5t34 6.5q37 0 61.5 -26t24.5 -62v-143q0 -36 -18.5 -55.5t-34 -26t-33.5 -6.5q-37 0 -62.5 25.5t-25.5 62.5v143z" />
    <glyph glyph-name="maithothai" unicode="&#xe49;" 
d="M-374 1717q48 -42 48 -113v-9q0 -9 -2 -14l19 2h247q46 0 59 -28.5t13 -43t-12.5 -43t-59.5 -28.5h-489q22 38 33.5 60t20.5 38.5t15 29.5q13 28 8 44t-20 16q-14 0 -23 -6t-21.5 -8t-24.5 1t-22.5 10.5t-18.5 19t-10 24t1 24t11 22.5t18 19q31 25 97 25q65 0 113 -42z
" />
    <glyph glyph-name="maitrithai" unicode="&#xe4a;" 
d="M-425 1612q-33 0 -33 -33q0 -15 12 -27q21 -21 22 -59.5t-38.5 -54.5t-71.5 10q-74 49 -74 125.5t51 124t112 47.5q62 0 109 -39q47 39 89 39q118 0 147.5 -64.5t31.5 -103.5l17 2h75q47 0 58.5 -27.5t11.5 -42t-12 -42t-58 -27.5h-313q73 99 73 136.5t-32 37.5
q-20 0 -28 -12t-10 -44h-99q-7 54 -40 54z" />
    <glyph glyph-name="maichattawathai" unicode="&#xe4b;" 
d="M-254 1706v33q0 37 19 56t35 25.5t43.5 6.5t53 -25.5t25.5 -62.5v-33h45q51 0 64.5 -30.5t13.5 -55.5t-22.5 -47.5t-55.5 -22.5h-45v-30q0 -37 -19 -56t-35 -25.5t-34 -6.5t-53 14t-35 74v30h-45q-51 0 -64.5 30.5t-13.5 55.5t22.5 47.5t55.5 22.5h45z" />
    <glyph glyph-name="thanthakhatthai" unicode="&#xe4c;" 
d="M-389 1490q0 117 66.5 141t103.5 24h129q32 0 50.5 -17.5t25 -32.5t6.5 -41t-25 -49.5t-57 -23.5h-117q-14 0 -19 -7.5t7 -19.5l19 -16q24 -24 24 -70.5t-32 -58t-57.5 -11.5t-48.5 23q-75 78 -75 159z" />
    <glyph glyph-name="nikhahitthai" unicode="&#xe4d;" 
d="M-119 1214q0 18 -4 28t-11 18t-16.5 12t-21.5 4t-22 -4t-17.5 -12t-12 -18t-4.5 -27t16.5 -32t39.5 -15t38 14t15 32zM10 1222.5q0 -37.5 -14 -71t-39 -58t-58 -39t-71 -14.5t-71 14.5t-58 39t-39 58t-14 71t14 70.5t39 58t58 39.5t71 14.5t71 -14.5t58 -39.5t39 -58
t14 -70.5z" />
    <glyph glyph-name="yamakkanthai" unicode="&#xe4e;" 
d="M-238 1360q0 -68 88 -68v-110q-88 0 -88 -52q0 -42 62 -46q25 -2 36.5 -17t16.5 -35.5t-12.5 -49t-54.5 -22.5q-72 12 -120 56t-48 111q0 68 40 114q-40 49 -40 99q0 86 49 135t116 49t123 -46q31 -24 19 -65t-44 -42.5t-53 15.5q-20 17 -40 17q-21 0 -35.5 -14.5
t-14.5 -28.5z" />
    <glyph glyph-name="fongmanthai" unicode="&#xe4f;" horiz-adv-x="1151" 
d="M690 486q0 24 -9 45t-25 37t-37 25t-45 9t-45.5 -9t-37.5 -25t-25.5 -37t-9.5 -45t9.5 -45.5t25.5 -37.5t37.5 -25.5t45.5 -9.5t45 9.5t37 25.5t25 37.5t9 45.5zM213 534.5q0 -98.5 13 -144t36.5 -86t56.5 -73.5t73.5 -56.5t86 -36.5t94.5 -13t95 13t107.5 49t109 120
t47.5 179l2 -9q0 151 -107.5 260t-254 109t-253 -106.5t-106.5 -205zM826 486q0 -52 -20 -98t-54 -80.5t-80 -54t-98 -19.5t-122 29.5t-100 100t-30 122.5t29.5 121t100 100t122.5 31t98 -20t80 -54t54 -80t20 -98zM1073 486q0 -68 -18 -132t-50.5 -119.5t-78.5 -101
t-102 -78.5t-119 -51t-131 -18t-132 18t-119.5 51t-101 78.5t-78.5 101t-51 119.5t-18 132t18 131t51 119t78.5 102t101 78.5t119.5 50.5t132 18t131 -18t119 -50.5t102 -78.5t78.5 -102t50.5 -119t18 -131z" />
    <glyph glyph-name="zerothai" unicode="&#xe50;" horiz-adv-x="946" 
d="M658 593q-77 75 -185 75q-107 0 -182.5 -75.5t-75.5 -178.5t75.5 -178.5t182.5 -75.5t184.5 74t77.5 179t-77 180zM474 844q184 0 313 -127.5t129 -304.5t-130 -302.5t-312 -125.5t-310.5 125.5t-128.5 302.5t127.5 304.5t311.5 127.5z" />
    <glyph glyph-name="onethai" unicode="&#xe51;" horiz-adv-x="946" 
d="M455 158q158 0 214 92.5t56 144t-9.5 84.5t-36 77t-86.5 78t-114 34q-90 0 -154.5 -38.5t-94.5 -101.5q-11 -26 4 -26h94q57 0 72.5 -35t15.5 -62.5t-25.5 -53t-62.5 -25.5h-100q-133 0 -174 122.5t86 259t317 136.5q189 0 317.5 -127t128.5 -306t-128.5 -304
t-312.5 -125t-298 116q-43 43 -32.5 85t57.5 68.5t85 -17.5q74 -76 181 -76z" />
    <glyph glyph-name="twothai" unicode="&#xe52;" horiz-adv-x="1084" 
d="M860 629q0 45 -62 45q-36 0 -46 -22t-10 -38t-6 -31.5t-17.5 -27t-27 -18.5t-42 -7t-50.5 25.5t-24 60.5q0 58 -57 58q-26 0 -43 -17t-17 -49t39 -67t19 -84.5t-64 -54t-80 29.5q-86 80 -86 175q0 96 62.5 168.5t155.5 72.5t155 -52q64 52 147 52q232 0 232 -396
q0 -209 -130.5 -335.5t-342.5 -126.5t-350.5 132t-138.5 324v484q0 57 35 72.5t62 15.5t53 -26t26 -62v-482q0 -125 88 -204.5t227 -79.5q207 0 250 110t43 153v202z" />
    <glyph glyph-name="threethai" unicode="&#xe53;" horiz-adv-x="1083" 
d="M217 408q0 -106 55 -178t146 -72q26 0 38 6t48 4t59 -56q19 -52 -21 -92t-114 -36t-126.5 21.5t-112.5 61t-104 139.5t-44 184q0 167 84 291.5t258 180.5l170 -168l166 164q153 -55 239 -169t86 -259q0 -226 -112 -317t-154 -111q-59 -28 -93 -16t-47 36t-14 64t47 63
q197 94 197 281q0 134 -116 219l-199 -199l-207 208q-129 -82 -129 -250z" />
    <glyph glyph-name="fourthai" unicode="&#xe54;" horiz-adv-x="1003" 
d="M482 -16q-185 0 -313 126.5t-128 303.5t127.5 304.5t313.5 127.5h314l109 141q39 45 83.5 33t69.5 -55t-14 -89l-114 -147q-47 -59 -123 -59h-325q-109 0 -186 -75t-77 -180t77 -180t186 -75q62 0 124 28l-84 84q-135 135 -26 240l55 56q44 41 98.5 17.5t54.5 -71.5
t-28 -76l-35 -32l287 -285q28 -28 28 -75t-35.5 -62.5t-62.5 -15.5t-53 26l-67 66q-118 -76 -256 -76z" />
    <glyph glyph-name="fivethai" unicode="&#xe55;" horiz-adv-x="1003" 
d="M41 416q0 141 84 252.5t221 157.5q-2 4 -2 6v18q0 80 56.5 138t140 58t140.5 -58.5t57 -137.5v-4h58l109 141q39 45 83.5 33t69.5 -55t-14 -89l-114 -147q-47 -59 -123 -59h-325q-109 0 -186 -75t-77 -180t77 -180t186 -75q62 0 124 28l-84 84q-135 135 -26 240l55 56
q44 41 98.5 17.5t54.5 -71.5t-28 -76l-35 -32l287 -285q28 -28 28 -75t-35.5 -62.5t-62.5 -15.5t-53 26l-67 66q-118 -76 -256 -76q-185 0 -313 126.5t-128 305.5zM608 852q0 14 -5 27t-14 22t-21.5 14t-27 5t-26.5 -5t-21 -14t-14.5 -22t-5.5 -27t5.5 -27t14.5 -22t21 -14
t26.5 -5t27 5t21.5 14t14 22t5 27z" />
    <glyph glyph-name="sixthai" unicode="&#xe56;" horiz-adv-x="932" 
d="M111.5 927q16.5 7 43 7t52.5 -24l199 -200l139 140q160 -43 255 -161t95 -280t-128 -291.5t-311 -129.5q-219 0 -352 180q-42 57 -45 94q-5 64 16 101t103 119q26 24 61.5 24t54.5 -18q32 -31 32 -67t-25 -63q-61 -50 -61 -70.5t33.5 -49.5t76 -51.5t101.5 -22.5
q110 0 188 76t78 182q0 107 -49.5 156.5t-79.5 66.5l-182 -182l-324 321q-26 26 -26 52t6.5 42t19.5 29t29.5 20z" />
    <glyph glyph-name="seventhai" unicode="&#xe57;" horiz-adv-x="1095" 
d="M219 408q0 -106 55 -178t146 -72q26 0 38 6t48 4t59 -56q19 -52 -20 -91.5t-143 -34.5t-187.5 64.5t-127.5 155.5t-44 184q0 167 84 291.5t258 180.5l170 -168l166 164q87 -33 147 -80v144q0 58 35.5 73t63 15t53.5 -26t26 -62v-492q0 -226 -112 -317t-154 -111
q-59 -28 -93 -16t-47 36t-14 64t47 63q197 94 197 281q0 134 -116 219l-199 -199l-207 208q-129 -82 -129 -250z" />
    <glyph glyph-name="eightthai" unicode="&#xe58;" horiz-adv-x="1102" 
d="M1057 295q0 -125 -97 -216t-252 -91l-155 152l-170 -166q-159 54 -251.5 168.5t-92.5 281.5q0 166 106.5 271.5t195.5 130t215 24.5h159q159 0 162 2t10 12l84 109q35 49 81.5 35.5t64 -44t11.5 -57.5t-18 -41l-100 -133q-44 -59 -123 -59h-395q-115 0 -195 -78t-80 -188
q0 -151 129 -228l207 203l217 -215q74 18 91 65t17 73q0 52 -42.5 91t-96.5 45q-55 6 -78.5 36.5t-19.5 56.5q21 117 188.5 64.5t197.5 -150t30 -154.5z" />
    <glyph glyph-name="ninethai" unicode="&#xe59;" horiz-adv-x="1130" 
d="M754 842h149q20 0 97 126q29 49 83 42t65.5 -50.5t-8.5 -75.5q-78 -120 -106 -152q-64 -72 -143.5 -63.5t-101 2t-51.5 -42.5l335 -514q32 -51 0 -98.5t-80 -39t-67 39.5l-410 636q-10 20 -58 20t-114 -28.5t-94.5 -99t-28.5 -125.5t31 -126t103.5 -101t124.5 -30t88 14
q37 14 54 15.5t32.5 -4t36 -23t23 -66.5t-49.5 -72q-107 -40 -174 -40q-68 0 -125 15t-131.5 58t-133.5 140.5t-59 216.5q0 185 120.5 308.5t299.5 123.5q116 0 188 -86q80 80 105 80z" />
    <glyph glyph-name="angkhankhuthai" unicode="&#xe5a;" horiz-adv-x="1224" 
d="M443 514q-152 0 -252.5 83.5t-124.5 221.5q-12 65 44 100t99 3.5t49 -67.5t19.5 -64t34.5 -48.5t49.5 -32.5t62.5 -12t87 22t75 110q31 104 109 104q43 0 70 -30.5t27 -73.5v-740q0 -40 -38.5 -80t-98 -12.5t-59.5 92.5v484q-68 -60 -153 -60zM1147 90q0 -41 -21.5 -62.5
t-39.5 -29.5t-49 -8t-60 29t-29 71v742q0 65 39 82.5t70 17.5t60.5 -29.5t29.5 -70.5v-742z" />
    <glyph glyph-name="khomutthai" unicode="&#xe5b;" horiz-adv-x="2060" 
d="M540.5 518q-14.5 34 -14.5 55q-1 46 -41.5 89t-137.5 4.5t-97 -198.5q0 -120 76 -180t187 -60t189 69.5t105.5 174t-15.5 198.5l124 84q89 -69 237 -302q47 105 65 160l118 72q48 -48 136 -186l19 36l12 25h410q60 0 74 -34.5t14 -63t-25 -53.5t-63 -25h-317l-56 -84
q-12 -18 -38 -59.5t-46 -61.5q-18 53 -129 250q-70 -140 -125.5 -213.5t-69.5 -87.5q-78 176 -155 281q-38 -146 -163.5 -249t-285.5 -103q-213 0 -335.5 113t-122.5 302q0 237 129.5 311t218.5 74q121 6 206.5 -81t73.5 -205q0 -36 -24 -61t-71 -25q-48 0 -62.5 34z" />
    <glyph glyph-name="ZWSP" unicode="&#x200b;" 
 />
    <glyph glyph-name="endash" unicode="&#x2013;" horiz-adv-x="778" 
d="M696 448q60 0 75 -35.5t15 -54t-15.5 -54.5t-74.5 -36h-614q-59 0 -74.5 36t-15.5 64.5t27 54t63 25.5h614z" />
    <glyph glyph-name="emdash" unicode="&#x2014;" horiz-adv-x="1556" 
d="M1474 448q60 0 75 -35.5t15 -54t-15.5 -54.5t-74.5 -36h-1392q-59 0 -74.5 36t-15.5 64.5t27 54t63 25.5h1392z" />
    <glyph glyph-name="quoteleft" unicode="&#x2018;" horiz-adv-x="385" 
d="M299 954q0 -47 -33.5 -80.5t-75.5 -33.5q-70 0 -103.5 43t-33.5 101q0 57 43.5 121t129.5 122q28 19 61.5 1.5t26 -48.5t-22.5 -40q-55 -37 -84 -81q92 -24 92 -105z" />
    <glyph glyph-name="quoteright" unicode="&#x2019;" horiz-adv-x="385" 
d="M58 1116q0 46 33 80.5t75 34.5q69 0 103 -43t34 -100q0 -58 -43.5 -122.5t-128.5 -121.5q-31 -20 -57 -5t-30 43.5t16 42.5q20 15 41.5 32.5t48.5 54.5q-92 23 -92 104z" />
    <glyph glyph-name="quotedblleft" unicode="&#x201c;" horiz-adv-x="631" 
d="M576 954q0 -45 -33 -79.5t-75 -34.5q-70 0 -104 43t-34 101q0 57 43 121t129 122q29 20 61 2t26.5 -48t-21.5 -41q-54 -36 -84 -81q92 -24 92 -105zM299 954q0 -47 -33.5 -80.5t-75.5 -33.5q-70 0 -103.5 43t-33.5 101q0 57 43.5 121t129.5 122q28 19 61.5 1.5t26 -48.5
t-22.5 -40q-55 -37 -84 -81q92 -24 92 -105z" />
    <glyph glyph-name="quotedblright" unicode="&#x201d;" horiz-adv-x="645" 
d="M87 1196.5q34 34.5 75 34.5q68 0 102.5 -43t34.5 -100q0 -58 -43.5 -122.5t-128.5 -121.5q-31 -20 -57 -5t-31 43t16 43t42.5 32.5t48.5 54.5q-44 11 -68.5 38.5t-24.5 69.5t34 76.5zM330 1116q0 46 33 80.5t75 34.5q69 0 103.5 -43.5t34.5 -100.5t-43.5 -121.5
t-128.5 -121.5q-30 -20 -63 -2t-25.5 47.5t24.5 42.5q47 32 82 80q-92 23 -92 104z" />
    <glyph glyph-name="bullet" unicode="&#x2022;" horiz-adv-x="737" 
d="M712 409.5q0 -47.5 -12 -91.5t-34 -82t-54 -70t-70 -54t-82 -34t-91.5 -12t-91.5 12t-82.5 34t-69.5 54t-53.5 70t-35 82t-12.5 91.5t12.5 91.5t35 82.5t53.5 69.5t69.5 53.5t82.5 35t91.5 12.5t91.5 -12.5t82 -35t70 -53.5t54 -69.5t34 -82.5t12 -91.5z" />
    <glyph glyph-name="Euro" unicode="&#x20ac;" horiz-adv-x="1138" 
d="M133 538q0 26 2 54h-21q-59 0 -75.5 36.5t-16.5 64t26.5 55.5t65.5 28h72q39 80 115 158q173 164 417 164q159 0 316 -109q52 -39 43 -88.5t-53.5 -79t-95.5 8.5q-92 75 -253 75q-49 0 -115 -29.5t-118 -81.5l-16 -18h192q61 0 76.5 -36.5t15.5 -64.5t-26 -55.5
t-66 -27.5h-280q-4 -28 -4 -60v-36h284q38 0 58 -20t27 -37t7 -45.5t-26.5 -55t-65.5 -26.5h-200q136 -138 282 -138q111 0 228 76q56 37 108.5 -0.5t41.5 -86.5t-48 -75q-71 -52 -195.5 -92t-287.5 9.5t-246 142t-117 164.5h-70q-59 0 -75.5 36t-16.5 64.5t27.5 56
t64.5 27.5h19v42z" />
    <glyph glyph-name="trademark" unicode="&#x2122;" horiz-adv-x="1229" 
d="M976 1054q14 30 47 30t43 -38l114 -546q6 -36 -25 -59t-57.5 -4t-32.5 47q-5 27 -12 62.5t-15 71.5t-15 72t-14 70l-10 60l-157 -382h-70l-138 328l-20 58l-72 -347q-6 -36 -44 -44.5t-55.5 17.5t-13.5 50l117 546q10 38 43 38q34 0 47 -30l169 -406zM412 1082
q30 0 41.5 -21t11.5 -33q0 -22 -16.5 -38.5t-36.5 -16.5h-98v-487q0 -36 -22 -47t-34 -11q-24 0 -41 17t-17 41v487h-98q-34 0 -43.5 21.5t-9.5 33.5q0 22 17.5 38t35.5 16h310z" />
    <glyph glyph-name="uni25CC" unicode="&#x25cc;" horiz-adv-x="1372" 
d="M840 805l100 33l-35 -96q-30 38 -65 63zM901 420l25 -84l-84 26q34 23 59 58zM473 744l-27 94l92 -33q-33 -20 -65 -61zM426 633q-4 -23 -4 -47t4 -46l-92 48zM952 545q4 19 4 41t-4 42l86 -44zM643 320q22 -4 44 -4t40 4l-41 -86zM718 850h-30q-24 0 -49 -4l47 92
l45 -90q-10 2 -13 2zM530 366l-98 -30l35 96q26 -37 63 -66z" />
    <glyph glyph-name="thothannobasethai" unicode="&#xf700;" horiz-adv-x="874" 
d="M815 570q0 -64 -25 -126l-153 -388q-11 -28 -36.5 -46t-74.5 -18t-72 61l-149 401q-23 59 24 102t95 24t64 -60l59 -162l57 148q12 34 12 67q0 69 -56.5 122t-137.5 53q-106 0 -141 -62t-44 -94q-15 -52 -63.5 -77.5t-97.5 15.5t-33 103q55 205 179 253t211 48t165 -39
l72 78q42 48 105 27t65.5 -75.5t-23.5 -82.5l-67 -74q65 -83 65 -198z" />
    <glyph glyph-name="yoyingnobasethai" unicode="&#xf70f;" horiz-adv-x="1551" 
d="M926 332q0 -67 49.5 -114.5t124.5 -47.5t124.5 46t49.5 116v500q0 65 39 82.5t61 17.5q42 0 70 -28.5t28 -71.5v-500q0 -145 -108 -245.5t-265 -100.5t-265.5 100.5t-108.5 245.5v194q0 152 -101.5 188t-157.5 36q-111 0 -194 -78l50 -50v-438h59q59 0 75.5 -36t16.5 -56
q0 -36 -26 -64t-66 -28h-161q-39 0 -69 28t-30 71v468l-51 55q-66 71 27.5 151.5t173 121.5t168.5 41t149.5 -14t138 -51.5t138.5 -131.5t61 -209v-198z" />
    <glyph glyph-name="saraulowthai" unicode="&#xf718;" 
d="M-78 -708q0 -62 -36.5 -78.5t-66 -16.5t-56.5 28.5t-27 66.5v110h-43q-61 0 -78 37t-17 57q0 38 28 66t67 28h135q61 0 77.5 -36t16.5 -56v-206z" />
    <glyph glyph-name="sarauulowthai" unicode="&#xf719;" 
d="M-348 -624q0 -18 13 -29t30 -11t30 11t13 29v132q0 61 36.5 76.5t64.5 15.5t55.5 -26t27.5 -66v-128q0 -89 -67 -148.5t-162 -59.5t-159 47.5t-64 122.5v62h-38q-60 0 -77 37t-17 57q0 36 27.5 64t66.5 28h126q61 0 77.5 -36t16.5 -56v-122z" />
    <glyph glyph-name="phinthulowthai" unicode="&#xf71a;" 
d="M-58 -518q0 -24 -9 -44q-9 -22 -25 -38t-37 -25.5t-45 -9.5t-46 9.5t-38 25.5t-25.5 37t-9.5 45t9.5 46t25.5 38t37 25t45 9t46 -9t38 -25t25 -38t9 -46z" />
    <glyph glyph-name="lochula.short" unicode="&#xf71d;" horiz-adv-x="1116" 
d="M1038 652v-392q0 -113 -84 -191.5t-199 -78.5t-196 68q-81 -68 -196 -68t-200 78.5t-85 191.5v572q0 65 39 82.5t59 17.5q42 0 71 -30t29 -70v-572q0 -56 36 -70t56 -14q39 0 65 24.5t26 59.5v262q0 66 38.5 83t59.5 17q40 0 70.5 -28.5t30.5 -71.5v-262q0 -57 36 -70.5
t56 -13.5q38 0 65 25t27 59v394q0 77 -64 77h-47q-57 0 -70.5 33.5t-13.5 59.5t23.5 51.5t60.5 25.5h57q10 0 34 -1t24 19q0 21 7 38t20 30.5t31 21t38 7.5q38 0 67 -27.5t29 -64.5q0 -84 -48 -132q48 -52 48 -140z" />
    <glyph glyph-name="rulakkhangyao" unicode="&#xf881;" horiz-adv-x="1526" 
d="M918 526v-786q0 -40 -30 -70t-60 -30q-52 0 -79.5 30.5t-27.5 69.5v786q0 99 -72 162.5t-186 63.5q-74 0 -121.5 -30t-65.5 -48l50 -52v-438h49q59 0 75.5 -36t16.5 -56q0 -36 -26 -64t-66 -28h-149q-39 0 -69 28t-30 71v458l-45 47q-83 83 66 207.5t326 124.5
q178 0 310 -112q117 89 185.5 99.5t136.5 10.5t137 -28t137 -98t68 -218v-854q0 -41 -21.5 -62.5t-40 -28.5t-38.5 -7q-43 0 -70.5 27.5t-27.5 70.5v840q0 178 -173 178q-95 0 -184 -84q25 -67 25 -144z" />
    <glyph glyph-name="lulakkhangyao" unicode="&#xf882;" horiz-adv-x="1538" 
d="M932 526v-786q0 -39 -21.5 -61.5t-40 -30.5t-38.5 -8q-41 0 -69 30t-28 70v786q0 99 -72 162.5t-180 63.5t-192 -78l49 -52v-523q0 -64 -39 -81.5t-60 -17.5h-110q-59 0 -75.5 36t-16.5 56q0 37 26 64.5t66 27.5h11v384l-52 55q-65 70 74.5 191.5t315.5 121.5t312 -106
q127 104 296 104t264.5 -98t95.5 -246v-854q0 -41 -21.5 -62.5t-40 -28.5t-38.5 -7q-43 0 -70.5 27.5t-27.5 70.5v840q0 178 -173 178q-90 0 -174 -78q29 -75 29 -150z" />
    <glyph glyph-name="yamakkanleftthai" 
d="M-375 1192q-88 0 -88 -66q0 -14 15.5 -27t37.5 -15t32 -8t17.5 -15t13 -28t-17 -58t-121 7t-98.5 148q0 64 42 111q-42 47 -42 98q0 87 50.5 136t117.5 49q68 0 121 -46q32 -26 19 -66t-44.5 -41t-47.5 11q-15 12 -24.5 16.5t-26.5 4.5t-30.5 -14.5t-13.5 -28.5
q0 -28 21 -48t67 -20v-100z" />
    <glyph glyph-name="saraamleft" horiz-adv-x="760" 
d="M340 934q68 0 137 -28t137 -98t68 -218v-502q0 -40 -21.5 -61.5t-40 -29t-38.5 -7.5q-42 0 -70 28t-28 70v488q0 178 -172 178q-75 0 -144 -56q-43 -40 -91.5 -20t-64.5 71t22 83q37 32 67.5 50t63.5 29.5t70 17t105 5.5zM-479 1204q0 18 -4 28t-11.5 17.5t-17 12
t-27 4.5t-32.5 -16.5t-15 -39.5q0 -24 15 -38.5t38 -14.5t38.5 14.5t15.5 32.5zM-350 1212.5q0 -37.5 -14.5 -71t-39 -58t-58 -39t-71 -14.5t-70.5 14.5t-58 39t-39.5 58t-14.5 71t14.5 70.5t39.5 58t58 39t70.5 14t71 -14t58 -39t39 -58t14.5 -70.5z" />
    <glyph glyph-name="uni0E33.alt1" horiz-adv-x="760" 
d="M340 934q68 0 137 -28t137 -98t68 -218v-502q0 -40 -21.5 -61.5t-40 -29t-38.5 -7.5q-42 0 -70 28t-28 70v488q0 178 -172 178q-75 0 -144 -56q-43 -40 -91.5 -20t-64.5 71t22 83q37 32 67.5 50t63.5 29.5t70 17t105 5.5zM-479 1204q0 18 -4 28t-11.5 17.5t-17 12
t-27 4.5t-32.5 -16.5t-15 -39.5q0 -24 15 -38.5t38 -14.5t38.5 14.5t15.5 32.5zM-350 1212.5q0 -37.5 -14.5 -71t-39 -58t-58 -39t-71 -14.5t-70.5 14.5t-58 39t-39.5 58t-14.5 71t14.5 70.5t39.5 58t58 39t70.5 14t71 -14t58 -39t39 -58t14.5 -70.5z" />
    <glyph glyph-name="sarainarrowthai" 
d="M-154 1218q58 0 72 -35t14 -53q0 -34 -24.5 -60t-61.5 -26h-602q-55 0 -70.5 34t-15.5 52q0 37 25.5 62.5t60.5 25.5h602z" />
    <glyph glyph-name="saraiinarrowthai" 
d="M-756 1044q-55 0 -70.5 34t-15.5 52q0 37 25.5 62.5t60.5 25.5h504v46q0 57 35 72.5t53 15.5q36 0 61 -26.5t25 -61.5v-134q0 -33 -25 -59.5t-61 -26.5h-592z" />
    <glyph glyph-name="sarauenarrowthai" 
d="M-164 1192q0 10 -4 19t-11 15.5t-15.5 10.5t-18.5 4t-18.5 -4t-15.5 -10.5t-11 -15.5t-4 -19t4 -19t11 -15.5t15.5 -10.5t18.5 -4t18.5 4t15.5 10.5t11 15.5t4 19zM-108.5 1299q44.5 -43 44.5 -90q0 -77 -44 -121t-103 -44h-545q-55 0 -70.5 34t-15.5 52q0 37 25.5 62.5
t60.5 25.5h398q19 85 68.5 104.5t93.5 19.5q43 0 87.5 -43z" />
    <glyph glyph-name="saraueenarrowthai" 
d="M-756 1044q-55 0 -70.5 34t-15.5 52q0 37 25.5 62.5t60.5 25.5h266v52q0 51 33 66.5t49 15.5q32 0 57 -23.5t25 -58.5v-52h82v50q0 53 34 68.5t58.5 15.5t49 -24.5t24.5 -59.5v-138q0 -33 -25 -59.5t-61 -26.5h-592z" />
    <glyph glyph-name="sarauchochanthai" 
d="M-258 -389q0 -60 -36 -77.5t-56 -17.5q-38 0 -66 28t-28 67v111h-44q-59 0 -76.5 37t-17.5 57q0 36 27.5 65t66.5 29h136q61 0 77.5 -37t16.5 -57v-205z" />
    <glyph glyph-name="sarauuchochanthai" 
d="M-410 -307q0 -19 13 -29t30 -10t30 10t13 29v133q0 36 26.5 64t56.5 28q50 0 75.5 -27.5t25.5 -64.5v-129q0 -91 -62 -149t-156 -58q-144 0 -187 66t-47 104v62h-36q-62 0 -78.5 37t-16.5 57q0 37 27.5 64.5t67.5 27.5h124q39 0 66.5 -27.5t27.5 -66.5v-121z" />
    <glyph glyph-name="maiekupperleftthai.alt1" 
d="M-598 1661q0 37 19 56t35 25.5t34 6.5q35 0 60.5 -25.5t25.5 -62.5v-143q0 -59 -34 -73.5t-52 -14.5t-53 14t-35 74v143z" />
    <glyph glyph-name="maichattawaupperleftthai.alt1" 
d="M-598 1706v33q0 60 34.5 74t62.5 14t53.5 -25.5t25.5 -62.5v-33h45q52 0 64.5 -30.5t12.5 -56t-22 -47.5t-55 -22h-45v-30q0 -37 -19 -56t-35 -25.5t-34.5 -6.5t-53 14t-34.5 74v30h-46q-51 0 -64.5 30.5t-13.5 56t23.5 47.5t54.5 22h46z" />
    <glyph glyph-name="maithothai.alt2" 
d="M-274 1717q48 -42 48 -113v-9q0 -9 -2 -14l19 2h247q46 0 59 -28.5t13 -43t-12.5 -43t-59.5 -28.5h-489q22 38 33.5 60t20.5 38.5t15 29.5q13 28 8 44t-20 16q-14 0 -23 -6t-21.5 -8t-24.5 1t-22.5 10.5t-18.5 19t-10 24t1 24t11 22.5t18 19q31 25 97 25q65 0 113 -42z
" />
    <glyph glyph-name="maitrithai.alt2" 
d="M-279 1612q-33 0 -33 -33q0 -17 10 -27q21 -21 22.5 -59t-38 -54.5t-72.5 9.5q-74 49 -74 125.5t51.5 124t112.5 47.5q60 0 109 -39q47 39 89 39q77 0 126.5 -46t53.5 -122l16 2h76q46 0 57.5 -27.5t11.5 -48.5t-19 -42t-50 -21h-314q100 135 77 154.5t-39 19.5
q-32 0 -36 -56h-98q-6 54 -39 54z" />
    </font>
</defs>
</svg>
